<svg version="1.1" xmlns="http://www.w3.org/2000/svg" viewBox="0 0 531.24008141579 658.5304978904626" width="531.24008141579" height="658.5304978904626">
  <!-- svg-source:excalidraw -->
  
  <defs>
    <style class="style-fonts">
      @font-face {
        font-family: "Virgil";
        src: url("https://excalidraw.com/Virgil.woff2");
      }
      @font-face {
        font-family: "Cascadia";
        src: url("https://excalidraw.com/Cascadia.woff2");
      }
    </style>
    
  </defs>
  <g stroke-linecap="round"><g transform="translate(422.1807443673847 211.6682955833311) rotate(0 1.0128706758669068 7.792030973936761)" fill-rule="evenodd"><path d="M0.98 -1.13 L-1.84 7.62 L-3.18 10.44 L-1.41 16.52 L4.38 16.93 L4.24 12.47 L1.89 -1.17" stroke="none" stroke-width="0" fill="#228be6" fill-rule="evenodd"></path><path d="M-0.45 0.72 C-0.98 1.89, -3.12 5.06, -3.13 7.39 C-3.14 9.72, -2 13.54, -0.52 14.72 C0.95 15.9, 5.44 16.4, 5.71 14.45 C5.99 12.5, 2.18 5.46, 1.12 3.01 C0.05 0.56, -0.41 0.37, -0.65 -0.23 M1.51 0.05 C0.87 0.84, -3.47 2.97, -3.83 5.62 C-4.2 8.28, -2.31 14.36, -0.69 15.96 C0.93 17.55, 5.77 17.28, 5.9 15.18 C6.03 13.08, 1.01 6.13, 0.1 3.36 C-0.82 0.6, 0.41 -1.07, 0.41 -1.4" stroke="#364fc7" stroke-width="1" fill="none"></path></g></g><mask></mask><g stroke-linecap="round"><g transform="translate(137.96337280138187 640.4213554100783) rotate(0 90.2192735027279 -308.8453414735624)" fill-rule="evenodd"><path d="M2 -1.03 L25.41 5.61 L41.86 7.08 L123.67 5.45 L191.86 -1.35 L234.05 -10.85 L246.05 -17.24 L257.78 -30.51 L269.86 -57.64 L275.56 -72.25 L279.35 -87.92 L277.83 -151.93 L273.4 -419.36 L261.16 -495.94 L255.64 -520.39 L245.05 -539.41 L233.76 -560.23 L225.82 -567.54 L200.78 -589.51 L169.18 -609.11 L149.01 -616.95 L128.79 -622.84 L105.65 -624.74 L86.08 -626.79 L65.83 -626.98 L48.19 -621.66 L30.29 -612.92 L-2.11 -595.57 L-13.04 -584.87 L-27.26 -573.84 L-45.59 -544.09 L-63.49 -506.52 L-77.9 -461.37 L-87.39 -410.18 L-93.85 -316.16 L-98.43 -119.7 L-95.28 -78.7 L-87.8 -52.76 L-78.69 -30.7 L-73.82 -19.59 L-63.93 -13.75 L-50.6 -8.26 L0.65 -1.21" stroke="none" stroke-width="0" fill="white" fill-rule="evenodd"></path><path d="M0.47 0.68 C7.59 1.66, 17.74 6.23, 42.25 6.56 C66.77 6.89, 117.27 5.15, 147.57 2.64 C177.87 0.14, 206.8 -4.2, 224.05 -8.46 C241.3 -12.71, 242.46 -11.89, 251.07 -22.89 C259.68 -33.88, 271.47 -52.95, 275.73 -74.42 C279.99 -95.9, 276.56 -99.32, 276.65 -151.71 C276.73 -204.11, 276.91 -342.25, 276.27 -388.78 C275.63 -435.31, 275.17 -413.35, 272.78 -430.89 C270.4 -448.44, 266.75 -475.76, 261.94 -494.07 C257.14 -512.37, 251.77 -526.83, 243.96 -540.73 C236.14 -554.63, 230.77 -564.56, 215.05 -577.48 C199.34 -590.41, 174.56 -610.5, 149.65 -618.26 C124.75 -626.02, 91 -627.48, 65.63 -624.06 C40.25 -620.64, 16.04 -611.08, -2.6 -597.72 C-21.24 -584.37, -33.78 -566.5, -46.21 -543.93 C-58.63 -521.37, -69.56 -493.16, -77.14 -462.32 C-84.73 -431.48, -88.5 -390.95, -91.72 -358.88 C-94.94 -326.82, -95.54 -302.43, -96.48 -269.94 C-97.41 -237.45, -97.16 -191.08, -97.33 -163.95 C-97.5 -136.83, -98.78 -125.82, -97.49 -107.17 C-96.2 -88.52, -95.21 -67.6, -89.61 -52.07 C-84.01 -36.54, -79.01 -22.55, -63.89 -14 C-48.77 -5.45, -9.75 -3.02, 1.09 -0.75 M-0.74 -0.01 C6.36 1.1, 17.32 7.42, 41.9 8.02 C66.48 8.62, 116.28 6.15, 146.75 3.59 C177.22 1.02, 207.06 -3.02, 224.75 -7.39 C242.44 -11.76, 244.21 -11.83, 252.91 -22.62 C261.62 -33.41, 272.86 -50.92, 276.97 -72.11 C281.09 -93.3, 277.79 -96.97, 277.6 -149.76 C277.4 -202.54, 276.87 -342.32, 275.8 -388.84 C274.73 -435.35, 273.33 -411.32, 271.16 -428.85 C268.99 -446.38, 267.29 -475.56, 262.79 -494 C258.29 -512.44, 251.8 -525.49, 244.16 -539.5 C236.53 -553.5, 233.21 -565.3, 216.99 -578.01 C200.77 -590.73, 172.15 -608.18, 146.82 -615.79 C121.49 -623.4, 89.95 -627.12, 65.02 -623.7 C40.09 -620.27, 15.69 -608.17, -2.75 -595.22 C-21.2 -582.28, -33.04 -568.22, -45.65 -546.01 C-58.25 -523.81, -70.99 -493.2, -78.37 -462 C-85.75 -430.81, -87.21 -390.37, -89.92 -358.83 C-92.63 -327.29, -93.48 -305.54, -94.63 -272.77 C-95.79 -240.01, -96.24 -189.67, -96.84 -162.25 C-97.44 -134.83, -99.41 -126.9, -98.22 -108.23 C-97.02 -89.56, -95.38 -65.81, -89.68 -50.23 C-83.97 -34.64, -78.86 -23.37, -63.97 -14.73 C-49.09 -6.08, -10.99 -0.78, -0.36 1.63" stroke="#343a40" stroke-width="1" fill="none"></path></g></g><mask></mask><g stroke-linecap="round"><g transform="translate(415.1709440811587 276.8191064643228) rotate(0 21.560353575473982 93.3238708383451)" fill-rule="evenodd"><path d="M0.25 1.64 L27.09 53.55 L34.55 72.97 L42.6 92.84 L47.03 138.51 L46.12 164.48 L41.99 183.93 L40.48 185.62 L34.88 187.25 L25.96 184.29 L8.75 159.23 L0.77 139.07 L-5.1 97.28 L-2.41 -1.13" stroke="none" stroke-width="0" fill="#000000" fill-rule="evenodd"></path><path d="M1.14 -0.15 C6.96 11.83, 27.49 46.96, 35.42 72.59 C43.36 98.22, 48.01 134.61, 48.73 153.64 C49.45 172.67, 44.24 183.11, 39.74 186.76 C35.24 190.42, 28.65 185.38, 21.74 175.56 C14.84 165.75, 2.12 157.28, -1.7 127.85 C-5.51 98.42, -1.08 20.62, -1.15 -1.03 M0.28 -1.28 C5.89 10.79, 26.4 47.72, 34.42 73.75 C42.44 99.79, 47.54 135.93, 48.42 154.92 C49.29 173.92, 43.75 184.29, 39.64 187.74 C35.53 191.2, 30.97 185.25, 23.76 175.65 C16.55 166.04, 0.93 159.73, -3.63 130.11 C-8.2 100.49, -3.7 20.03, -3.61 -2.09" stroke="#343a40" stroke-width="1" fill="none"></path></g></g><mask></mask><g stroke-linecap="round"><g transform="translate(506.99476557571643 380.9173363775293) rotate(5.977534402547849 -23.940370645811754 -63.60476787840406)" fill-rule="evenodd"><path d="M0.5 0.61 L5.51 -133.99 L-54.81 -31.08 L-2.56 5.82" stroke="none" stroke-width="0" fill="#e64980" fill-rule="evenodd"></path><path d="M-1.19 1.43 C2.12 -53.9, 3.9 -106.15, 4.24 -132.76 M0.07 -0.37 C0.22 -31.75, 1.19 -64.73, 4.73 -133.91 M6.97 -135.28 C-20.45 -94.98, -40.67 -53.22, -54.85 -33.81 M5.22 -134.02 C-9.58 -107.58, -25.39 -83.06, -53.58 -31.75 M-54.08 -29.98 C-35.07 -17.45, -14.35 -1.96, -2.8 8.07 M-53.32 -31.94 C-36.99 -20.27, -21.31 -6.78, -4.13 6.44 M-3.31 6.69 C-2.66 3.92, -1.89 2.49, -0.3 0.54 M-3.04 5.98 C-2.31 4.49, -1.65 2.41, 0.32 0.1" stroke="#343a40" stroke-width="1" fill="none"></path></g></g><mask></mask><g stroke-linecap="round"><g transform="translate(349.62421915279765 259.6411184334605) rotate(5.977534402547849 76.09258629605642 57.67845060722513)" fill-rule="evenodd"><path d="M-1.42 0.24 L5.01 -1.49 L16.27 4.86 L56.19 23.9 L101.58 55.52 L131.07 88.93 L144.8 106.66 L151.03 117.61 L128.58 104.58 L89.24 73.74 L29.92 24.95 L-1.52 -1.46" stroke="none" stroke-width="0" fill="#ced4da" fill-rule="evenodd"></path><path d="M-0.03 -0.33 C1.6 -0.52, 3.13 -0.39, 5.53 -0.58 M0.04 0.25 C1.97 -0.24, 3.91 -0.79, 6.15 -1.27 M4.74 -1.99 C9.99 0.42, 12.02 0.67, 16.27 2.49 M6.2 -0.99 C9.83 0.21, 14.39 2.5, 17.4 2.93 M15.83 3.44 C32.19 11.62, 47.91 20.83, 55.88 24.85 M16.89 2.9 C28.97 10.64, 40.96 16.62, 55.21 24.1 M54.56 21.94 C70.91 34.4, 87.95 48.72, 99.17 56.23 M55.49 23.64 C72.22 35.09, 90.96 48.72, 99.89 55.65 M100.54 55.96 C108.93 67.12, 116.92 79.12, 129.53 91.77 M100.38 55.89 C110.44 68.85, 122.73 82.61, 129.95 90.75 M130.1 90.93 C133.16 95.09, 139.23 98.52, 145.64 106.34 M129.79 91.83 C133.68 94.37, 136.56 97.53, 146.58 104.6 M145.4 105.05 C148.43 108.91, 148.95 114.41, 149.98 117.15 M145.96 104.86 C147.37 108.34, 147.98 109.82, 151.53 117.34 M152.38 116.1 C147.84 112.22, 140.61 111.37, 130.07 106.1 M150.06 116.04 C144.46 113.58, 139.39 109.77, 129.09 104.27 M129.85 104.14 C119.09 94.14, 108.29 86.39, 92.58 74.32 M130.34 105.04 C117.88 96.32, 107.61 86.41, 90.61 73.25 M92.71 74.3 C73.62 58.53, 53.69 46.93, 31.28 27.98 M89.99 73.99 C77.47 63.62, 64.35 53.66, 29.72 26.87 M32.32 25.85 C23.71 19.5, 18.52 16.63, 1.59 -1.39 M30.23 26.27 C22.08 19.24, 12.73 11.94, -0.2 0.41 M0 0 C0 0, 0 0, 0 0 M0 0 C0 0, 0 0, 0 0" stroke="#343a40" stroke-width="1" fill="none"></path></g></g><mask></mask><g stroke-linecap="round"><g transform="translate(309.21396188558856 260.18545410572904) rotate(16.8216018414898 48.733865532034315 146.1616900028099)" fill-rule="evenodd"><path d="M-1.8 -0.03 L-65.54 201.4 L93.64 292.61 L162.81 80.84 L1.15 -1.58" stroke="none" stroke-width="0" fill="#e64980" fill-rule="evenodd"></path><path d="M-0.34 -0.47 C-25.32 75.84, -49.82 151.82, -64.76 202.77 M-0.16 0.35 C-17.43 53.56, -33.39 106.43, -65.43 203.42 M-64.52 202.73 C-32.28 221.98, 3.61 242.42, 95.18 292.05 M-66.12 201.91 C-21.91 226.88, 22.34 250.36, 94.36 291.75 M93.39 292.69 C122.43 209.52, 150.28 124.95, 163.33 81.73 M92.99 292.8 C113.58 228.75, 135.27 165.27, 163.59 81.29 M161.71 80.82 C99.07 50.24, 36.14 17.9, 1.8 0.76 M162.32 80.61 C119.98 60.37, 75.46 38.47, 0.15 -0.12 M0 0 C0 0, 0 0, 0 0 M0 0 C0 0, 0 0, 0 0" stroke="#343a40" stroke-width="1" fill="none"></path></g></g><mask></mask><g stroke-linecap="round"><g transform="translate(386.13258128767166 573.6400061617613) rotate(16.8216018414898 42.26143848117886 -103.97771262051307)" fill-rule="evenodd"><path d="M0.03 -1.25 L18.1 -0.92 L84.43 -208.11 L71.11 -210.14 L1.07 -0.6" stroke="none" stroke-width="0" fill="#e64980" fill-rule="evenodd"></path><path d="M-0.87 0.88 C3.37 1.26, 9.57 -0.55, 17.17 -1.26 M-0.44 -0.15 C7.67 -1.16, 13.77 -0.42, 17.15 -2.33 M16.63 -3.08 C31.04 -49.08, 48.5 -94.25, 84.04 -206.5 M17.75 -1.29 C40.93 -67.39, 62.29 -132.89, 85.4 -207.95 M84.8 -206.05 C80.37 -206.64, 75.94 -207.86, 70.01 -208.52 M83.83 -207.24 C80.57 -207.07, 77.54 -208.06, 70.61 -208.89 M69.2 -207.21 C52.24 -159.63, 37.99 -111.38, -0.54 0.06 M70.77 -208.31 C45.8 -139.29, 22.39 -70.15, -0.58 0.39 M0 0 C0 0, 0 0, 0 0 M0 0 C0 0, 0 0, 0 0" stroke="#343a40" stroke-width="1" fill="none"></path></g></g><mask></mask><g stroke-linecap="round"><g transform="translate(495.06418715664813 370.70778181987623) rotate(5.977534402547849 -12.398897374580656 -54.66711338658297)" fill-rule="evenodd"><path d="M0 0 L7.62 -109.33 L-32.42 -36.32 L0 0" stroke="none" stroke-width="0" fill="#fff" fill-rule="evenodd"></path><path d="M0 0 C2.08 -29.85, 4.16 -59.71, 7.62 -109.33 M0 0 C2.59 -37.11, 5.17 -74.23, 7.62 -109.33 M7.62 -109.33 C-4.57 -87.11, -16.75 -64.89, -32.42 -36.32 M7.62 -109.33 C-1.44 -92.82, -10.49 -76.3, -32.42 -36.32 M-32.42 -36.32 C-21.49 -24.08, -10.56 -11.83, 0 0 M-32.42 -36.32 C-19.88 -22.27, -7.33 -8.22, 0 0 M0 0 C0 0, 0 0, 0 0 M0 0 C0 0, 0 0, 0 0" stroke="#343a40" stroke-width="1" fill="none"></path></g></g><mask></mask><g stroke-linecap="round"><g transform="translate(483.2091712637034 306.8100926949918) rotate(5.977534402547849 0.6558873690455584 24.76761939397261)"><path d="M1.82 0.28 C-2.16 18.18, 2.52 34.64, 1.3 48.66 M0.3 1.76 C-0.65 12.43, -0.7 29.72, -0.19 49.25" stroke="#343a40" stroke-width="1" fill="none"></path></g></g><mask></mask><g stroke-linecap="round"><g transform="translate(469.6195971413945 332.62498359252356) rotate(5.977534402547849 0.3808474284069234 8.932630773613454)"><path d="M-1.22 0.41 C3.27 5.74, 2.3 11.05, 0.56 19.42 M-1.25 -1.56 C-0.91 4.78, 0.66 6.74, -0.39 15.51" stroke="#343a40" stroke-width="1" fill="none"></path></g></g><mask></mask><g stroke-linecap="round"><g transform="translate(508.306732318164 266.8044203848807) rotate(5.977534402547849 -2.622117814341891 50.60124657565393)"><path d="M3.29 -0.72 C-1.07 28.79, -5.23 65.29, -8.53 100.72 M-1.5 1.04 C-3.85 37.32, -8.18 76.52, -7.57 101.92" stroke="#343a40" stroke-width="1" fill="none"></path></g></g><mask></mask><g stroke-linecap="round"><g transform="translate(432.68035096982476 321.70970542496104) rotate(5.977534402547849 22.741207073800524 15.02598821285801)"><path d="M1.58 -1.97 C12.95 14.12, 24.38 21.11, 45.4 29.51 M0.09 -1.38 C6.26 5.23, 15.3 14.71, 41.89 32.02" stroke="#343a40" stroke-width="1" fill="none"></path></g></g><mask></mask><g stroke-linecap="round"><g transform="translate(374.003414336858 269.4819881555958) rotate(5.977534402547849 26.834861772749946 19.472288514308048)"><path d="M-0.67 3.79 C13.32 12.3, 34.49 19.79, 50.56 36.56 M-1.83 -1 C17.81 16.49, 38.33 28.05, 55.5 39.94" stroke="#343a40" stroke-width="1" fill="none"></path></g></g><mask></mask><g stroke-linecap="round"><g transform="translate(454.8102075424499 283.1066153995579) rotate(243.53612430464975 53.36262785199142 36.119683923522615)" fill-rule="evenodd"><path d="M-1.66 -0.3 L2.38 -4.23 L10.03 -4.6 L43.92 15.47 L73.48 34.4 L96.36 57.73 L106.43 66.69 L108.08 76.71 L95.93 68.94 L65.69 46.95 L24.16 20.66 L-2.25 4.1" stroke="none" stroke-width="0" fill="#ced4da" fill-rule="evenodd"></path><path d="M-0.22 0.06 C1.06 -0.93, 1.09 -1.53, 3.08 -2.41 M-0.13 0.17 C0.69 -0.6, 1.46 -1.07, 2.78 -2.57 M2.34 -1.58 C5.14 -1.85, 7.46 -2.86, 11.57 -2.82 M3.22 -2.32 C5.71 -2.66, 8.42 -3.08, 11.37 -2.76 M13.15 -1.57 C18.16 2.7, 24.58 3.55, 44.29 15.75 M12 -2.24 C20.77 1.63, 29.11 7.26, 44.9 15.54 M46.1 16.67 C56.64 22.44, 69.11 31.85, 74.08 35.77 M45.92 17.2 C51.35 20.9, 58.27 24.87, 73.57 35.46 M74.05 34.68 C80.63 39.58, 86.58 47.36, 94.44 56.45 M74.92 34.6 C81.87 41.98, 88 50.03, 95.6 56.45 M94.79 57.13 C97.38 57.28, 98.98 60.97, 105.83 66.71 M95.81 55.62 C98.53 58.68, 100.04 61.3, 105.25 68 M105.79 66.61 C105.71 68.32, 106.82 70.52, 108.11 74.29 M105.59 67.29 C105.63 69.15, 105.86 70.24, 107.33 75.07 M107.38 75.11 C103.57 72.38, 100.14 71.33, 95.03 68.4 M107.77 75.03 C102.2 72.66, 97.58 70.89, 93.83 69.66 M92.73 69.03 C85.74 62.19, 77.72 55.3, 67.56 46.72 M94.94 68.26 C88.28 63.78, 79.63 58.81, 66.86 48.24 M66.91 46.52 C54.46 39.02, 41.2 28.14, 24.58 17.5 M65.99 47.94 C51.2 38.08, 34.98 26.4, 24.62 18.76 M25.35 18.01 C17.68 13.81, 13.65 13.25, 0.74 2.74 M25.24 19.4 C17.09 14.31, 8.61 8.55, -1.37 2.17 M-1.38 2.21 C-0.89 1.8, -0.73 1.33, 0.21 0.1 M-1.13 2.27 C-0.92 1.71, -0.43 0.86, -0.08 0.01" stroke="#343a40" stroke-width="1" fill="none"></path></g></g><mask></mask><g stroke-linecap="round"><g transform="translate(510.54536715318454 262.6442691599358) rotate(5.977534402547849 -1.0469960648342749 21.868331112175042)"><path d="M3.51 -3.06 C-5.47 15.31, -0.7 36.78, -5.6 42.69 M0.01 -0.56 C-0.21 12.03, -3.18 21.76, -3.05 46.8" stroke="#343a40" stroke-width="1" fill="none"></path></g></g><mask></mask><g stroke-linecap="round"><g transform="translate(501.0261302962049 324.1274822529434) rotate(5.977534402547849 -1.8551378188431045 21.056891925840432)"><path d="M-3.81 -3 C2 14.74, -3.74 25.51, -4.85 43.62 M1.14 0.39 C-2.23 16.6, -2.42 36.62, -1.03 45.11" stroke="#343a40" stroke-width="1" fill="none"></path></g></g><mask></mask><g stroke-linecap="round"><g transform="translate(394.3677686437409 125.75099549403933) rotate(0 -191.62732292653072 199.689205311156)" fill-rule="evenodd"><path d="M0.29 -0.24 L-18.08 -11.84 L-23.35 -13.58 L-26.86 -13.13 L-43.07 11.36 L-49.18 16.94 L-57.81 17.93 L-76.82 14.26 L-133.78 -3.8 L-144.91 -5.01 L-155.74 -4.58 L-174.93 5.64 L-192.78 21.69 L-204.29 40.29 L-212.63 62.71 L-214.78 72.24 L-213.46 83.04 L-209.68 109.21 L-202.07 158.23 L-204.79 202.51 L-202.81 214.4 L-192.11 222.74 L-179.5 231.46 L-131.9 256.92 L-84.61 280.34 L-66.96 288.87 L-38.14 309.91 L-30.92 320.02 L-28.73 328.83 L-37.66 334.52 L-50.14 341.58 L-89.5 341.95 L-111.86 342.56 L-175.5 331 L-187.47 332 L-195.36 333.24 L-202.44 334.02 L-204.25 341.72 L-203.89 347.72 L-205.6 387.16 L-222.67 456.89 L-239.27 493.72 L-246.76 503.76 L-259.56 511.31 L-265.75 512.87 L-296 512.84 L-315.58 509.92 L-333.77 505.23 L-346.82 498.13 L-359.9 487.51 L-371.38 475.96 L-377.39 463.23 L-383.93 444.76 L-381.92 396.06 L-378.76 331.96 L-369.92 279.28 L-346.05 155 L-333.77 62.21 L-331.2 39.42 L-314.84 0.38 L-306.17 -21.09 L-287.96 -50.77 L-272.38 -72.75 L-257.87 -82.29 L-225.44 -99.76 L-208.89 -107.56 L-190.42 -111.34 L-168.42 -113.57 L-148.89 -115.98 L-111.18 -110.94 L-93.51 -106.95 L-83.62 -103.75 L-58.5 -87.55 L-35.44 -66.9 L-15.09 -42.03 L-10.95 -30.27 L-0.4 0.81" stroke="none" stroke-width="0" fill="#000000" fill-rule="evenodd"></path><path d="M-0.9 0.63 C-4.73 -1.54, -14.31 -16.75, -23.91 -14.14 C-33.51 -11.52, -36.43 14.49, -58.48 16.31 C-80.53 18.13, -130.47 -10.78, -156.21 -3.2 C-181.94 4.39, -205.47 35.19, -212.89 61.82 C-220.31 88.45, -202.55 131.4, -200.72 156.6 C-198.89 181.8, -210.38 197.68, -201.92 213 C-193.46 228.33, -172.79 235.86, -149.96 248.57 C-127.12 261.28, -85.12 275.83, -64.93 289.28 C-44.74 302.73, -25.17 320.27, -28.82 329.27 C-32.46 338.28, -59.21 342.8, -86.81 343.28 C-114.42 343.76, -174.84 324.93, -194.46 332.16 C-214.08 339.38, -201.38 370.94, -204.54 386.64 C-207.7 402.34, -210.15 412.51, -213.41 426.37 C-216.66 440.23, -216.62 455.57, -224.06 469.79 C-231.49 484.02, -239.91 506.22, -258.04 511.74 C-276.16 517.25, -312.64 510.98, -332.81 502.88 C-352.99 494.78, -370.77 484.5, -379.08 463.13 C-387.39 441.75, -383.67 402.41, -382.67 374.63 C-381.67 346.85, -377.11 320.86, -373.09 296.45 C-369.07 272.04, -363.87 256.32, -358.54 228.2 C-353.2 200.07, -345.74 159.11, -341.07 127.7 C-336.4 96.3, -337.56 67.16, -330.53 39.75 C-323.5 12.34, -311.09 -16.35, -298.88 -36.75 C-286.68 -57.15, -275.74 -70.15, -257.29 -82.65 C-238.85 -95.16, -212.9 -106.77, -188.21 -111.78 C-163.52 -116.8, -130.66 -116.73, -109.16 -112.74 C-87.66 -108.76, -74.74 -99.6, -59.21 -87.88 C-43.67 -76.16, -26.01 -57.12, -15.96 -42.42 C-5.9 -27.71, -1.6 -6.78, 1.11 0.35 M0.83 -0.09 C-3.07 -2.02, -15.33 -15.93, -24.83 -13.03 C-34.33 -10.13, -34.24 16, -56.17 17.31 C-78.09 18.62, -130.03 -12.64, -156.39 -5.19 C-182.76 2.27, -206.66 35.22, -214.36 62.03 C-222.06 88.85, -204.73 130.21, -202.61 155.68 C-200.49 181.15, -210.23 199.41, -201.63 214.85 C-193.04 230.3, -173.65 235.65, -151.05 248.37 C-128.45 261.09, -86.02 277.79, -66.03 291.17 C-46.03 304.54, -27.17 319.84, -31.09 328.63 C-35.01 337.43, -62.07 343.43, -89.53 343.95 C-116.98 344.46, -176.73 324.74, -195.83 331.74 C-214.92 338.74, -201.13 370.17, -204.07 385.93 C-207.02 401.69, -210.29 412.4, -213.49 426.31 C-216.68 440.22, -216 454.94, -223.24 469.39 C-230.48 483.84, -238.43 507.34, -256.9 513.01 C-275.37 518.67, -314.03 512.15, -334.05 503.37 C-354.06 494.6, -369.16 481.76, -376.99 460.38 C-384.81 439.01, -381.71 402.65, -381 375.11 C-380.3 347.57, -376.4 319.87, -372.76 295.17 C-369.11 270.47, -363.94 254.46, -359.13 226.89 C-354.32 199.32, -348.58 160.52, -343.88 129.73 C-339.19 98.94, -338.72 70.11, -330.98 42.17 C-323.24 14.23, -309.48 -17.13, -297.45 -37.91 C-285.42 -58.69, -276.64 -70.27, -258.81 -82.51 C-240.97 -94.76, -215.05 -106.22, -190.43 -111.37 C-165.82 -116.51, -133.22 -117.06, -111.11 -113.38 C-89.01 -109.7, -73.6 -101.29, -57.79 -89.29 C-41.97 -77.29, -25.8 -56.13, -16.22 -41.38 C-6.64 -26.63, -3.01 -7.5, -0.29 -0.81" stroke="#343a40" stroke-width="1" fill="none"></path></g></g><mask></mask><g stroke-linecap="round"><g transform="translate(395.8239027544405 190.78610164093982) rotate(0.9047918442673833 -0.19165424460970826 -27.78398141453434)"><path d="M0.05 -0.83 C1.55 -2.09, 4.93 -4.62, 8.09 -6.94 C11.26 -9.26, 15.82 -11.41, 19.06 -14.77 C22.31 -18.13, 25.7 -23.42, 27.59 -27.11 C29.48 -30.79, 30.64 -33.24, 30.4 -36.87 C30.17 -40.51, 27.85 -46.14, 26.17 -48.91 C24.48 -51.68, 22.59 -52.26, 20.3 -53.51 C18.01 -54.76, 14.64 -56.26, 12.43 -56.41 C10.21 -56.55, 8.5 -55.1, 7 -54.37 C5.51 -53.65, 4.61 -52.91, 3.44 -52.05 C2.27 -51.18, 1.03 -49.13, -0.02 -49.19 C-1.08 -49.24, -1.76 -51.46, -2.87 -52.38 C-3.98 -53.3, -5.11 -54.2, -6.67 -54.7 C-8.23 -55.19, -10 -55.45, -12.22 -55.37 C-14.45 -55.28, -17.6 -55.25, -20.02 -54.21 C-22.43 -53.16, -25.06 -51.59, -26.69 -49.1 C-28.33 -46.6, -29.22 -42.4, -29.83 -39.23 C-30.43 -36.07, -31.41 -33.59, -30.34 -30.1 C-29.27 -26.61, -26.39 -21.75, -23.39 -18.3 C-20.39 -14.85, -16.39 -12.35, -12.32 -9.39 C-8.24 -6.43, -0.85 -1.98, 1.06 -0.54 M-1.38 1.35 C0.55 0.19, 6.41 -2.74, 10.23 -5.72 C14.05 -8.7, 18.59 -13.13, 21.53 -16.54 C24.46 -19.95, 26.54 -22.88, 27.84 -26.18 C29.13 -29.48, 29.39 -32.93, 29.29 -36.36 C29.19 -39.79, 28.63 -43.69, 27.23 -46.75 C25.82 -49.81, 23.42 -52.99, 20.88 -54.72 C18.34 -56.45, 14.46 -57.54, 11.97 -57.14 C9.49 -56.73, 7.75 -53.01, 5.95 -52.29 C4.15 -51.57, 2.12 -53.51, 1.18 -52.82 C0.24 -52.14, 1.21 -48.22, 0.34 -48.19 C-0.53 -48.17, -2.41 -51.49, -4.05 -52.69 C-5.68 -53.89, -8.08 -54.94, -9.47 -55.39 C-10.87 -55.84, -10.75 -55.51, -12.44 -55.4 C-14.12 -55.3, -17.39 -55.96, -19.59 -54.75 C-21.79 -53.53, -24.29 -50.29, -25.64 -48.1 C-26.99 -45.91, -27.21 -44.69, -27.7 -41.6 C-28.19 -38.5, -29.64 -33.52, -28.57 -29.51 C-27.5 -25.5, -23.54 -21.19, -21.27 -17.55 C-19.01 -13.9, -18.63 -10.84, -15 -7.63 C-11.36 -4.43, -1.8 0.18, 0.54 1.66" stroke="#000000" stroke-width="1" fill="none"></path></g></g><mask></mask><g stroke-linecap="round"><g transform="translate(399.25155263744045 193.56120570322616) rotate(0.9047918442673833 -0.10511164359036229 -27.42438947071031)" fill-rule="evenodd"><path d="M1.56 -0.48 L20.77 -14.05 L28.35 -27.39 L29.8 -36.44 L27.64 -44.53 L28.69 -47.44 L20.92 -53.17 L11.63 -55.9 L4.49 -53.12 L0.5 -49.47 L-7.47 -56.82 L-11.96 -56.25 L-19.34 -52.6 L-27.16 -47.59 L-27.82 -39.19 L-30.75 -30.39 L-23.37 -18.79 L-13.61 -9.46 L-0.7 0.12" stroke="none" stroke-width="0" fill="#fa5252" fill-rule="evenodd"></path><path d="M-1.1 -0.6 C0.29 -1.34, 4.88 -2.66, 8.37 -5.26 C11.87 -7.85, 16.57 -12.64, 19.89 -16.19 C23.2 -19.73, 26.74 -22.91, 28.27 -26.54 C29.79 -30.17, 29.31 -34.45, 29.05 -37.99 C28.79 -41.53, 27.97 -45, 26.71 -47.76 C25.46 -50.52, 23.88 -53.15, 21.51 -54.53 C19.15 -55.9, 14.93 -56, 12.51 -56.02 C10.1 -56.04, 8.72 -55.4, 7.02 -54.63 C5.33 -53.86, 3.44 -52.36, 2.33 -51.42 C1.21 -50.47, 1.08 -48.82, 0.34 -48.98 C-0.4 -49.13, -0.91 -51.4, -2.12 -52.35 C-3.34 -53.3, -5.12 -54.12, -6.93 -54.66 C-8.74 -55.21, -10.75 -55.61, -12.96 -55.62 C-15.17 -55.63, -17.79 -56.07, -20.17 -54.73 C-22.55 -53.39, -25.55 -50.05, -27.26 -47.57 C-28.97 -45.09, -30.08 -42.85, -30.45 -39.85 C-30.82 -36.85, -30.87 -32.97, -29.48 -29.58 C-28.1 -26.18, -25.03 -22.8, -22.15 -19.49 C-19.27 -16.18, -15.75 -12.82, -12.19 -9.7 C-8.64 -6.57, -2.79 -2.25, -0.82 -0.72 M0.52 1.7 C2.29 0.72, 7.55 -4.02, 10.65 -6.81 C13.75 -9.6, 16.09 -11.96, 19.13 -15.05 C22.16 -18.13, 26.91 -21.48, 28.87 -25.31 C30.83 -29.15, 31.02 -34.17, 30.89 -38.06 C30.75 -41.96, 30.03 -46.24, 28.06 -48.66 C26.09 -51.08, 21.73 -51.29, 19.07 -52.61 C16.41 -53.92, 14.29 -56.54, 12.1 -56.55 C9.92 -56.56, 7.48 -53.46, 5.98 -52.68 C4.49 -51.9, 3.99 -52.66, 3.14 -51.86 C2.29 -51.06, 1.9 -47.74, 0.89 -47.87 C-0.12 -48, -1.73 -51.4, -2.91 -52.64 C-4.1 -53.88, -4.44 -54.81, -6.21 -55.33 C-7.99 -55.86, -11.3 -55.75, -13.56 -55.79 C-15.83 -55.83, -17.67 -56.6, -19.82 -55.54 C-21.98 -54.48, -25.03 -52.21, -26.5 -49.43 C-27.97 -46.65, -27.91 -42.33, -28.64 -38.87 C-29.38 -35.42, -31.86 -31.96, -30.93 -28.71 C-29.99 -25.45, -25.73 -22.79, -23.05 -19.36 C-20.36 -15.92, -18.87 -11.55, -14.81 -8.1 C-10.75 -4.64, -1.09 -0.23, 1.33 1.37" stroke="#000000" stroke-width="1" fill="none"></path></g></g><mask></mask><g stroke-linecap="round"><g transform="translate(405.74508384302726 185.9882180583876) rotate(0.9047918442673833 -0.728836331617913 -14.249722749172975)" fill-rule="evenodd"><path d="M0.88 1.8 L12.89 -8.79 L16.89 -13.14 L16.95 -20.81 L18.22 -24.18 L12.95 -27.12 L7.2 -28.94 L-1.4 -24.47 L-4.18 -28.6 L-16.13 -31.64 L-16.6 -16.33 L-13.21 -8.28 L-0.43 1.02" stroke="none" stroke-width="0" fill="#ffc2c2" fill-rule="evenodd"></path><path d="M-0.82 1.08 C0.3 0.58, 3.34 -2.1, 5.61 -3.6 C7.88 -5.11, 11.05 -6.09, 12.81 -7.94 C14.56 -9.79, 15.28 -12.87, 16.15 -14.69 C17.01 -16.51, 17.78 -17.06, 18 -18.87 C18.22 -20.67, 18.18 -23.97, 17.45 -25.51 C16.72 -27.05, 15.19 -27.45, 13.63 -28.09 C12.07 -28.72, 9.77 -29.36, 8.11 -29.31 C6.44 -29.27, 4.68 -28.34, 3.64 -27.84 C2.59 -27.33, 2.23 -26.75, 1.81 -26.29 C1.4 -25.84, 1.61 -25.02, 1.12 -25.11 C0.64 -25.2, -0.14 -26.3, -1.09 -26.83 C-2.05 -27.36, -3.45 -27.9, -4.6 -28.29 C-5.75 -28.69, -5.91 -29.11, -7.98 -29.18 C-10.06 -29.25, -15.47 -29.49, -17.04 -28.73 C-18.62 -27.98, -17.26 -26.12, -17.45 -24.64 C-17.63 -23.15, -18.26 -21.26, -18.16 -19.81 C-18.06 -18.37, -17.71 -17.53, -16.85 -15.97 C-16 -14.42, -14.34 -12.22, -13.01 -10.47 C-11.69 -8.71, -11.01 -7.1, -8.9 -5.44 C-6.79 -3.79, -2.02 -1.39, -0.38 -0.53 M0.95 0.61 C2.01 0.33, 2.75 -1.06, 4.66 -2.24 C6.57 -3.43, 10.5 -4.53, 12.4 -6.5 C14.3 -8.47, 15.36 -12.08, 16.04 -14.05 C16.72 -16.02, 16.51 -16.8, 16.47 -18.34 C16.42 -19.87, 16.65 -22.01, 15.78 -23.28 C14.91 -24.55, 12.57 -24.85, 11.23 -25.96 C9.88 -27.08, 9.25 -29.44, 7.71 -29.98 C6.17 -30.52, 2.82 -29.77, 2.01 -29.21 C1.19 -28.65, 3.41 -27.5, 2.82 -26.63 C2.22 -25.76, -0.78 -23.91, -1.59 -23.99 C-2.4 -24.07, -1.57 -26.25, -2.02 -27.1 C-2.46 -27.95, -3.16 -28.68, -4.27 -29.1 C-5.38 -29.52, -6.55 -29.69, -8.67 -29.63 C-10.79 -29.57, -15.6 -29.21, -16.99 -28.74 C-18.39 -28.28, -16.59 -27.91, -17.02 -26.82 C-17.45 -25.73, -19.46 -24.07, -19.57 -22.22 C-19.67 -20.37, -18.6 -17.68, -17.65 -15.73 C-16.69 -13.77, -15.31 -12.46, -13.84 -10.49 C-12.38 -8.53, -10.87 -5.97, -8.84 -3.94 C-6.81 -1.92, -3.42 1.31, -1.66 1.67" stroke="transparent" stroke-width="1" fill="none"></path></g></g><mask></mask><g stroke-linecap="round"><g transform="translate(280.3425025312231 232.88951299269354) rotate(331.68280727051564 0.6004146387374476 -37.421818411694346)"><path d="M0 -0.34 C2.29 -1.88, 8.6 -4.59, 12.89 -8.18 C17.17 -11.78, 21.79 -17.41, 25.73 -21.93 C29.66 -26.44, 34.02 -30.59, 36.49 -35.27 C38.96 -39.95, 40.49 -45.2, 40.55 -50 C40.6 -54.81, 38.84 -60.44, 36.8 -64.11 C34.76 -67.78, 31.92 -70.38, 28.3 -72 C24.69 -73.63, 18.48 -73.95, 15.13 -73.87 C11.77 -73.78, 10.01 -72.45, 8.18 -71.47 C6.35 -70.5, 5.4 -69.09, 4.17 -68.01 C2.94 -66.94, 2.18 -64.72, 0.79 -65.02 C-0.61 -65.31, -2.35 -68.39, -4.21 -69.79 C-6.07 -71.19, -8.1 -72.92, -10.4 -73.43 C-12.69 -73.94, -15.06 -73.14, -17.99 -72.84 C-20.92 -72.53, -25.01 -73.13, -27.97 -71.58 C-30.94 -70.04, -34.12 -66.56, -35.78 -63.57 C-37.44 -60.59, -37.63 -57.45, -37.94 -53.69 C-38.26 -49.94, -38.76 -45.63, -37.68 -41.06 C-36.6 -36.49, -34.76 -31.01, -31.47 -26.28 C-28.19 -21.55, -23.38 -17.02, -17.98 -12.69 C-12.58 -8.35, -2.15 -2.58, 0.94 -0.29 M-1.45 -1.56 C0.8 -2.97, 7.95 -6.93, 12.3 -10.19 C16.64 -13.44, 20.55 -17.1, 24.61 -21.07 C28.67 -25.05, 34.17 -29.21, 36.68 -34.03 C39.18 -38.85, 39.9 -44.79, 39.65 -50 C39.4 -55.22, 37.46 -62, 35.17 -65.34 C32.88 -68.67, 29.42 -68.54, 25.92 -70.01 C22.41 -71.49, 17.34 -73.75, 14.14 -74.2 C10.95 -74.66, 8.78 -73.72, 6.74 -72.74 C4.7 -71.76, 2.76 -69.81, 1.9 -68.33 C1.04 -66.85, 2.83 -63.57, 1.59 -63.88 C0.36 -64.19, -3.56 -68.42, -5.52 -70.19 C-7.48 -71.96, -7.91 -74.13, -10.15 -74.51 C-12.39 -74.89, -15.95 -72.91, -18.97 -72.48 C-21.99 -72.05, -25.6 -73.08, -28.25 -71.91 C-30.91 -70.75, -33.16 -68.62, -34.9 -65.48 C-36.64 -62.34, -38.12 -57.15, -38.7 -53.07 C-39.29 -48.98, -39.92 -45.42, -38.41 -40.98 C-36.89 -36.53, -33.08 -31.39, -29.63 -26.41 C-26.18 -21.43, -22.69 -15.22, -17.69 -11.09 C-12.7 -6.96, -2.79 -3.52, 0.34 -1.62" stroke="#000000" stroke-width="1" fill="none"></path></g></g><mask></mask><g stroke-linecap="round"><g transform="translate(286.2852228650645 234.29679121964853) rotate(331.68280727051564 0.3775875424548758 -36.48209915942556)" fill-rule="evenodd"><path d="M0.07 0.67 L11.03 -10.1 L28.25 -20.46 L32.71 -27.61 L39.2 -42.64 L36.91 -55.99 L36.23 -64.01 L32.26 -70.18 L22.19 -73.84 L11.8 -71.51 L-0.57 -64.29 L-2.93 -68.74 L-11.99 -72.8 L-17.73 -73.41 L-27.18 -72.31 L-36.18 -64.4 L-39.53 -59.36 L-39.51 -48.48 L-38.48 -39.96 L-30.75 -26.18 L-16.45 -13.73 L1.07 -0.6" stroke="none" stroke-width="0" fill="#fa5252" fill-rule="evenodd"></path><path d="M0.68 0.23 C2.6 -1.26, 7.27 -5.8, 11.54 -9.3 C15.8 -12.8, 21.91 -16.28, 26.28 -20.78 C30.64 -25.27, 35.31 -31.48, 37.71 -36.29 C40.1 -41.09, 40.78 -44.93, 40.63 -49.61 C40.48 -54.29, 39.06 -60.74, 36.82 -64.37 C34.58 -67.99, 30.74 -69.82, 27.19 -71.37 C23.63 -72.92, 18.53 -73.65, 15.49 -73.66 C12.44 -73.67, 10.85 -72.39, 8.92 -71.44 C6.99 -70.5, 5.39 -69.01, 3.91 -67.98 C2.43 -66.95, 1.43 -64.88, 0.05 -65.27 C-1.33 -65.66, -2.53 -69.21, -4.36 -70.31 C-6.2 -71.42, -8.59 -71.38, -10.96 -71.9 C-13.34 -72.42, -15.91 -73.59, -18.61 -73.45 C-21.3 -73.31, -24.46 -72.5, -27.12 -71.06 C-29.77 -69.61, -32.76 -67.6, -34.54 -64.76 C-36.32 -61.92, -36.98 -57.92, -37.82 -54 C-38.66 -50.08, -40.69 -45.9, -39.56 -41.25 C-38.43 -36.6, -34.85 -30.89, -31.03 -26.09 C-27.22 -21.29, -21.92 -16.97, -16.66 -12.44 C-11.4 -7.92, -2.32 -0.93, 0.53 1.08 M-0.42 -0.69 C1.9 -2.03, 9.58 -5.12, 13.9 -8.23 C18.21 -11.33, 21.95 -14.76, 25.45 -19.32 C28.94 -23.88, 32.48 -30.56, 34.87 -35.57 C37.26 -40.59, 39.72 -45, 39.78 -49.41 C39.83 -53.83, 37.18 -58.19, 35.2 -62.07 C33.22 -65.95, 31.29 -70.74, 27.88 -72.71 C24.46 -74.68, 18.03 -73.88, 14.7 -73.88 C11.36 -73.88, 10.08 -73.63, 7.88 -72.69 C5.68 -71.76, 2.74 -69.68, 1.5 -68.28 C0.27 -66.87, 1.68 -63.81, 0.47 -64.26 C-0.74 -64.72, -3.84 -69.67, -5.76 -70.99 C-7.67 -72.31, -9.26 -71.77, -11.01 -72.18 C-12.76 -72.58, -13.6 -73.6, -16.26 -73.42 C-18.91 -73.24, -23.55 -72.74, -26.95 -71.11 C-30.35 -69.48, -34.74 -66.56, -36.67 -63.63 C-38.6 -60.7, -38.36 -57.26, -38.52 -53.53 C-38.67 -49.8, -39.21 -45.83, -37.62 -41.26 C-36.02 -36.69, -32.01 -31.2, -28.96 -26.11 C-25.92 -21.02, -24.13 -15.14, -19.34 -10.72 C-14.56 -6.29, -3.67 -1.62, -0.28 0.46" stroke="#000000" stroke-width="1" fill="none"></path></g></g><mask></mask><g stroke-linecap="round"><g transform="translate(295.12015877326075 219.2016164508501) rotate(331.68280727051564 0.19997631460273624 -19.62663335159587)" fill-rule="evenodd"><path d="M-1.17 -1.68 L17.95 -10.27 L22.82 -17.71 L24.35 -25.64 L20.38 -31.97 L17.14 -37.07 L9.56 -39.96 L1.11 -34.26 L-5.49 -35.96 L-22.35 -38.51 L-22.15 -19.8 L-20.25 -13.04 L-11.01 -5.8 L-0.35 -0.3" stroke="none" stroke-width="0" fill="#ffc2c2" fill-rule="evenodd"></path><path d="M-0.67 -0.89 C0.44 -1.6, 4.34 -2.29, 7.32 -4.07 C10.3 -5.86, 14.49 -9.16, 17.19 -11.6 C19.88 -14.03, 22.16 -16.28, 23.5 -18.68 C24.85 -21.09, 25.53 -23.65, 25.25 -26.01 C24.97 -28.37, 23.18 -31.09, 21.8 -32.86 C20.42 -34.62, 18.88 -35.75, 16.97 -36.58 C15.06 -37.41, 12.25 -37.82, 10.36 -37.84 C8.47 -37.85, 7.04 -37.12, 5.64 -36.68 C4.25 -36.23, 2.96 -35.58, 2.01 -35.16 C1.06 -34.74, 0.82 -34.19, -0.05 -34.16 C-0.92 -34.12, -1.97 -34.46, -3.21 -34.96 C-4.46 -35.46, -6.22 -36.82, -7.51 -37.18 C-8.8 -37.54, -8.7 -36.71, -10.94 -37.14 C-13.18 -37.57, -19.37 -40.31, -20.98 -39.76 C-22.58 -39.2, -19.97 -35.72, -20.57 -33.81 C-21.16 -31.89, -23.95 -30.35, -24.52 -28.29 C-25.1 -26.22, -25.13 -23.89, -24 -21.42 C-22.87 -18.95, -20.05 -16.17, -17.75 -13.47 C-15.45 -10.76, -13.23 -7.37, -10.2 -5.19 C-7.16 -3.01, -1.25 -1.3, 0.46 -0.37 M1.18 1.26 C2.06 0.14, 3.67 -4.07, 6.31 -6.06 C8.94 -8.05, 14.59 -8.72, 16.99 -10.67 C19.39 -12.63, 19.47 -15.22, 20.71 -17.77 C21.94 -20.31, 23.98 -23.26, 24.41 -25.95 C24.83 -28.63, 24.35 -31.91, 23.26 -33.89 C22.16 -35.87, 20.06 -37.12, 17.85 -37.81 C15.63 -38.5, 12.19 -38.03, 9.96 -38.04 C7.73 -38.06, 5.64 -38.31, 4.46 -37.91 C3.28 -37.5, 3.57 -36.34, 2.87 -35.59 C2.18 -34.85, 0.97 -33.55, 0.29 -33.43 C-0.4 -33.3, 0.12 -34.11, -1.25 -34.84 C-2.61 -35.56, -6.13 -37.45, -7.89 -37.78 C-9.65 -38.11, -9.76 -36.39, -11.8 -36.83 C-13.84 -37.27, -18.35 -41.11, -20.15 -40.44 C-21.96 -39.77, -22.23 -34.92, -22.63 -32.84 C-23.03 -30.75, -22.68 -29.83, -22.55 -27.92 C-22.41 -26, -22.47 -23.76, -21.83 -21.34 C-21.18 -18.91, -20.71 -15.85, -18.65 -13.36 C-16.58 -10.87, -12.48 -8.34, -9.44 -6.4 C-6.39 -4.47, -2.02 -2.7, -0.39 -1.75" stroke="transparent" stroke-width="1" fill="none"></path></g></g><mask></mask><g stroke-linecap="round"><g transform="translate(350.7376007192838 198.51579103109896) rotate(19.868786520812286 53.63763582758975 22.37297592781161)" fill-rule="evenodd"><path d="M1.55 0.49 L-12.96 14.36 L-13.83 21.64 L-12.8 32.38 L-18.3 42.59 L-11.7 46.37 L26.72 44.05 L90.98 38.93 L112.69 35.16 L123.62 31.46 L116.4 26.54 L91.61 22.01 L0.76 -0.62" stroke="none" stroke-width="0" fill="yellow" fill-rule="evenodd"></path><path d="M-0.12 0.27 C-2.04 2.67, -10.41 8.55, -12.18 13.55 C-13.95 18.55, -12.23 25.09, -10.74 30.28 C-9.24 35.46, -25.74 44.31, -3.23 44.66 C19.28 45.01, 123.73 39.76, 124.34 32.35 C124.95 24.95, 20.97 5.57, 0.44 0.22 M-1.64 -0.64 C-3.57 1.98, -11.02 9.35, -12.56 14.69 C-14.1 20.03, -11.97 26.28, -10.88 31.41 C-9.79 36.53, -28.31 45.22, -6.01 45.44 C16.29 45.66, 122.17 40.44, 122.91 32.75 C123.65 25.06, 19.12 4.92, -1.57 -0.7" stroke="#000000" stroke-width="1" fill="none"></path></g></g><mask></mask><g stroke-linecap="round"><g transform="translate(336.9815998760223 226.16266464146327) rotate(19.868786520812286 54.31046899294256 0.3797344178874198)"><path d="M1.09 -0.75 C19.18 -0.8, 90.52 -0.1, 108.41 -0.02 M0.21 1.47 C18.25 1.57, 90.07 1.45, 108.08 1.33" stroke="#000" stroke-width="1" fill="none"></path></g></g><mask></mask><g stroke-linecap="round"><g stroke-opacity="0.5" fill-opacity="0.5" transform="translate(333.4682681799509 230.44093975831663) rotate(19.868786520812286 63.66144581217054 6.084300174482394)" fill-rule="evenodd"><path d="M-1.92 0.71 L-5.38 9.05 L-2.92 9.22 L1.2 11 L3.14 11.19 L87.59 7.51 L131.43 3.1 L127.41 3.45 L109.79 -0.41 L0.07 0.67" stroke="none" stroke-width="0" fill="#fab005" fill-rule="evenodd"></path><path d="M1.18 -0.36 C0.45 1.26, -5.47 6.86, -3.29 8.99 C-1.1 11.12, -2.44 12.59, 14.28 12.43 C31 12.26, 77.59 9.44, 97.06 8.01 C116.52 6.58, 128.91 5.08, 131.06 3.83 C133.21 2.58, 126.93 1.17, 109.96 0.5 C92.99 -0.17, 47.56 -0.01, 29.24 -0.17 C10.92 -0.34, 5 -0.69, 0.04 -0.48 M0.34 -1.6 C-0.54 0.24, -5.81 7.64, -3.61 10.2 C-1.4 12.76, -3.3 13.91, 13.56 13.75 C30.42 13.59, 78.09 10.8, 97.54 9.23 C116.98 7.67, 128.43 5.96, 130.21 4.36 C131.99 2.76, 124.9 0.59, 108.2 -0.39 C91.49 -1.36, 48.17 -1.38, 29.98 -1.5 C11.78 -1.61, 3.83 -1.36, -0.97 -1.08" stroke="transparent" stroke-width="1" fill="none"></path></g></g><mask></mask><g stroke-linecap="round"><g transform="translate(250.30572585568052 226.21562765241254) rotate(32.9518816578977 4.707024999952409 12.116377117565378)" fill-rule="evenodd"><path d="M-0.89 1.74 L-7.48 10.56 L-5.64 17.99 L-1 21.44 L4.87 22.68 L7.7 21.54 L12.81 18.49 L16.11 13.65 L0.88 1.8" stroke="none" stroke-width="0" fill="#228be6" fill-rule="evenodd"></path><path d="M1.2 -0.62 C0.09 1.09, -4.93 6.08, -5.48 9.86 C-6.04 13.64, -4.75 19.86, -2.12 22.05 C0.5 24.24, 7.32 24.27, 10.25 23 C13.19 21.73, 17.16 18.24, 15.48 14.42 C13.81 10.59, 2.76 2.52, 0.19 0.04 M0.37 1.67 C-1 3.61, -5.88 7.77, -6.39 11.4 C-6.89 15.04, -4.96 21.35, -2.66 23.49 C-0.35 25.63, 4.6 25.66, 7.46 24.24 C10.32 22.82, 15.46 19.16, 14.5 14.96 C13.54 10.76, 4 1.25, 1.7 -0.98" stroke="#364fc7" stroke-width="1" fill="none"></path></g></g><mask></mask><g stroke-linecap="round"><g transform="translate(243.25913076187317 258.6629054182139) rotate(0 4.655468360391296 11.723190383277398)" fill-rule="evenodd"><path d="M-1.92 0.71 L-6.06 11.43 L-3.57 16.04 L-0.79 20.94 L1.69 22.1 L8.36 21.38 L14.96 18.62 L15.44 15.92 L0.76 -0.62" stroke="none" stroke-width="0" fill="#228be6" fill-rule="evenodd"></path><path d="M0.08 0.01 C-0.97 1.79, -4.88 6.39, -5.12 10.07 C-5.36 13.75, -3.88 20.01, -1.38 22.09 C1.13 24.17, 7.23 23.87, 9.92 22.55 C12.61 21.23, 16.39 18, 14.74 14.16 C13.1 10.33, 2.58 1.7, 0.04 -0.48 M-1.33 -1.03 C-2.61 0.42, -5.8 3.97, -5.83 8.06 C-5.87 12.16, -4.27 20.91, -1.52 23.54 C1.23 26.16, 8.17 25.3, 10.65 23.81 C13.13 22.31, 14.9 18.84, 13.37 14.58 C11.84 10.31, 3.72 0.61, 1.47 -1.78" stroke="#364fc7" stroke-width="1" fill="none"></path></g></g><mask></mask><g stroke-linecap="round"><g transform="translate(235.47134592140128 305.65672215778466) rotate(0 3.303363210188536 8.38536945277832)" fill-rule="evenodd"><path d="M-0.5 1.59 L-1.82 6.22 L-1.35 10.14 L-2.93 13.46 L4.84 14.07 L9.72 12.35 L9.75 11.29 L0.76 -0.62" stroke="none" stroke-width="0" fill="#228be6" fill-rule="evenodd"></path><path d="M0.44 0.22 C0.06 1.37, -2.02 4.41, -2.2 6.87 C-2.38 9.32, -1.95 13.6, -0.64 14.96 C0.67 16.31, 4.08 15.98, 5.67 14.99 C7.26 14, 9.93 11.33, 8.9 9.01 C7.87 6.68, 1.14 2.47, -0.53 1.04 M-0.78 -0.71 C-1.22 0.05, -2.5 2.02, -2.52 4.88 C-2.55 7.74, -2.34 14.56, -0.91 16.43 C0.51 18.3, 4.62 17.33, 6.01 16.12 C7.41 14.9, 8.35 11.74, 7.45 9.14 C6.55 6.55, 2.03 2.19, 0.6 0.55" stroke="#364fc7" stroke-width="1" fill="none"></path></g></g><mask></mask><g stroke-linecap="round"><g transform="translate(411.9874682967288 189.58389190292098) rotate(32.9518816578977 4.142578000450612 6.786007325919854)" fill-rule="evenodd"><path d="M1.57 -0.39 L-2.24 4.53 L-3.22 10.82 L5.9 11.64 L11.26 10.19 L11.38 9.58 L0.76 -0.62" stroke="none" stroke-width="0" fill="#228be6" fill-rule="evenodd"></path><path d="M1.19 0.26 C0.6 1.17, -2.61 3.75, -3.09 5.71 C-3.56 7.68, -3.27 11.01, -1.66 12.06 C-0.05 13.12, 4.63 12.58, 6.57 12.04 C8.51 11.5, 11.25 10.76, 9.97 8.82 C8.68 6.89, 0.56 1.74, -1.15 0.43 M0.36 -0.66 C-0.35 -0.14, -3.1 1.4, -3.55 3.74 C-3.99 6.09, -4.06 11.87, -2.33 13.4 C-0.6 14.92, 4.47 14.11, 6.84 12.89 C9.2 11.67, 13.07 8.31, 11.88 6.1 C10.68 3.89, 1.6 0.61, -0.34 -0.39" stroke="#364fc7" stroke-width="1" fill="none"></path></g></g><mask></mask></svg>