<svg version="1.1" xmlns="http://www.w3.org/2000/svg" viewBox="0 0 522.9674481997281 638.0567101232562" width="522.9674481997281" height="638.0567101232562">
  <!-- svg-source:excalidraw -->
  
  <defs>
    <style class="style-fonts">
      @font-face {
        font-family: "Virgil";
        src: url("https://excalidraw.com/Virgil.woff2");
      }
      @font-face {
        font-family: "Cascadia";
        src: url("https://excalidraw.com/Cascadia.woff2");
      }
    </style>
    
  </defs>
  <g stroke-linecap="round"><g transform="translate(403.8930396873179 221.35619846600497) rotate(332.74921565349945 21.518970708079678 93.10515002186557)" fill-rule="evenodd"><path d="M0.38 0.63 L28.39 51.12 L35.51 74.96 L39.48 92.73 L47.88 135.11 L46.33 168.33 L45.05 184.26 L40.23 185.95 L35.06 189.64 L29.19 182.17 L6.86 158.91 L-1.5 137.81 L-5.02 98.05 L-0.8 -2.31" stroke="none" stroke-width="0" fill="#000000" fill-rule="evenodd"></path><path d="M0.93 0.82 C6.68 13, 27.6 48.7, 35.44 74.14 C43.29 99.57, 47.05 134.56, 48.02 153.45 C48.99 172.34, 45.57 183.78, 41.29 187.48 C37.02 191.17, 29.5 185.29, 22.37 175.64 C15.24 165.99, 2.78 159.24, -1.5 129.57 C-5.79 99.9, -3.26 19.58, -3.33 -2.38 M-0.04 0.2 C5.46 12.57, 26.56 46.71, 34.45 72.45 C42.35 98.19, 46.07 135.84, 47.33 154.63 C48.59 173.41, 46.39 181.65, 42.01 185.17 C37.64 188.69, 28.62 185.11, 21.06 175.76 C13.5 166.41, 0.71 158.45, -3.34 129.07 C-7.4 99.7, -3.37 21.5, -3.27 -0.49" stroke="#343a40" stroke-width="1" fill="none"></path></g></g><mask></mask><g stroke-linecap="round"><g transform="translate(131.59648029092068 622.6641633916183) rotate(0 111.51635820834622 -299.3378684849131)" fill-rule="evenodd"><path d="M-0.47 0.47 L55.73 6.16 L104.91 4.19 L128.8 -0.26 L175.08 -10.15 L218.66 -23.83 L254.59 -41.26 L277.74 -53.96 L285.06 -66.82 L293.46 -76.34 L301.99 -94.24 L307.93 -108.48 L310.88 -148.05 L312.64 -167.07 L289.94 -333.81 L288.53 -355.46 L288.73 -386.43 L286.71 -426.75 L278.72 -475.12 L276.19 -493.89 L267.78 -504.64 L261.31 -516.86 L220.76 -562.2 L209.75 -569.83 L183.83 -585.04 L153.61 -595.17 L114.27 -601.95 L90.51 -605.43 L71.88 -604.89 L53.34 -600.8 L38 -595.44 L22.4 -586.2 L-8.16 -567.42 L-26.72 -542.28 L-46.32 -510.56 L-55.65 -490.32 L-61.43 -471.4 L-68.51 -447.94 L-68.26 -435.43 L-59.14 -364.83 L-56.98 -341.85 L-64.21 -322.79 L-78.22 -286.92 L-87.15 -267.42 L-86.27 -242.62 L-87.63 -164.25 L-88.98 -126.54 L-83.51 -83.74 L-78.86 -58.54 L-70.57 -38.15 L-62.73 -33.21 L-54.69 -22.97 L-42.18 -17.28 L-0.83 1.02" stroke="none" stroke-width="0" fill="white" fill-rule="evenodd"></path><path d="M-0.06 -0.02 C13.19 0.65, 50.69 6.94, 79.78 5.03 C108.87 3.13, 145.57 -4.11, 174.47 -11.45 C203.37 -18.79, 233.25 -28.09, 253.16 -39.02 C273.08 -49.94, 284.33 -58.7, 293.97 -77 C303.62 -95.3, 309.48 -123.02, 311.04 -148.81 C312.6 -174.6, 306.93 -200.8, 303.33 -231.74 C299.73 -262.68, 291.82 -305.67, 289.45 -334.44 C287.07 -363.22, 291.69 -377.97, 289.1 -404.39 C286.5 -430.8, 281.29 -471.59, 273.9 -492.94 C266.52 -514.3, 255.41 -519.52, 244.8 -532.53 C234.2 -545.54, 225.76 -560.35, 210.25 -571.01 C194.75 -581.68, 174.74 -591.21, 151.76 -596.53 C128.79 -601.85, 96.71 -606.2, 72.42 -602.95 C48.13 -599.7, 24.12 -589.75, 6.04 -577.02 C-12.05 -564.29, -23.8 -548.11, -36.08 -526.58 C-48.36 -505.06, -63.98 -478.91, -67.64 -447.86 C-71.31 -416.81, -55.08 -370.23, -58.07 -340.27 C-61.07 -310.32, -80.91 -296.96, -85.62 -268.14 C-90.33 -239.32, -85.85 -193.17, -86.35 -167.35 C-86.86 -141.52, -90.01 -131.06, -88.66 -113.2 C-87.32 -95.34, -83.9 -75.02, -78.27 -60.18 C-72.65 -45.34, -67.83 -34.33, -54.93 -24.17 C-42.02 -14, -10.02 -3.38, -0.84 0.81 M-1.55 -1.07 C12.05 -0.22, 52.87 4.85, 82.06 3.29 C111.25 1.73, 145.05 -3.04, 173.59 -10.44 C202.13 -17.85, 233.47 -30.14, 253.32 -41.15 C273.17 -52.16, 282.93 -58.4, 292.7 -76.48 C302.46 -94.57, 310.55 -123.59, 311.89 -149.67 C313.23 -175.75, 304.6 -202.14, 300.75 -232.97 C296.91 -263.8, 290.53 -305.93, 288.81 -334.66 C287.1 -363.4, 292.91 -378.9, 290.46 -405.39 C288.02 -431.88, 281.81 -472.04, 274.15 -493.61 C266.49 -515.18, 254.81 -521.8, 244.51 -534.83 C234.21 -547.86, 227.84 -561.38, 212.34 -571.76 C196.84 -582.15, 174.87 -592.02, 151.49 -597.15 C128.12 -602.28, 96.29 -605.8, 72.08 -602.54 C47.87 -599.28, 24.08 -589.93, 6.24 -577.58 C-11.6 -565.22, -22.41 -549.65, -34.96 -528.43 C-47.51 -507.21, -65 -481.75, -69.05 -450.27 C-73.1 -418.78, -56.25 -369.9, -59.27 -339.51 C-62.29 -309.12, -82.77 -296.82, -87.15 -267.91 C-91.53 -239.01, -85.65 -191.64, -85.54 -166.09 C-85.44 -140.54, -87.85 -132.57, -86.55 -114.59 C-85.24 -96.62, -82.92 -73.2, -77.71 -58.25 C-72.5 -43.3, -68.31 -34.67, -55.3 -24.9 C-42.29 -15.13, -8.57 -3.49, 0.36 0.35" stroke="#000000" stroke-width="1" fill="none"></path></g></g><mask></mask><g stroke-linecap="round"><g transform="translate(317.2137932548012 387.8810748500638) rotate(0 14.66798394033276 24.392635962829033)" fill-rule="evenodd"><path d="M-1.87 1.65 L8.13 -2.79 L13.49 -3.25 L17.55 -1.27 L17.35 6.37 L33.97 1.83 L39.82 9.1 L42.83 12.12 L44.08 22.84 L45.08 42.34 L43.6 49.18 L30.97 51.77 L4.76 55.36 L-8.28 53.52 L-12.82 48.22 L-17.74 34.83 L-15.36 21.59 L-11.79 8.27 L1.29 -1.35" stroke="none" stroke-width="0" fill="#000000" fill-rule="evenodd"></path><path d="M-0.95 0.4 C0.34 -0.1, 4.46 -3.22, 7.43 -3.61 C10.41 -4.01, 15.44 -3.8, 16.91 -1.98 C18.38 -0.16, 13.65 6.28, 16.23 7.32 C18.82 8.36, 27.81 3.05, 32.42 4.24 C37.04 5.42, 42.17 10, 43.9 14.44 C45.64 18.88, 43.13 25.6, 42.86 30.88 C42.58 36.16, 46.33 42.65, 42.27 46.12 C38.2 49.58, 27.01 50.7, 18.47 51.67 C9.92 52.64, -3.18 54.81, -9 51.94 C-14.82 49.07, -16.07 41.36, -16.44 34.47 C-16.82 27.59, -14.02 16.21, -11.25 10.63 C-8.48 5.05, -1.64 2.73, 0.19 1.01 M0.75 -0.44 C1.97 -1.19, 4.3 -5.1, 6.85 -5.13 C9.39 -5.17, 14.39 -2.4, 16.01 -0.66 C17.63 1.08, 13.5 4.97, 16.57 5.33 C19.64 5.68, 29.65 0.06, 34.46 1.47 C39.26 2.89, 43.92 9.12, 45.41 13.8 C46.89 18.47, 43.99 23.67, 43.35 29.51 C42.71 35.34, 45.46 44.77, 41.57 48.81 C37.68 52.85, 28.25 53.36, 20 53.74 C11.74 54.13, -1.88 54.13, -7.96 51.11 C-14.04 48.08, -16.23 42.34, -16.48 35.59 C-16.72 28.85, -12.27 16.45, -9.44 10.63 C-6.61 4.82, -0.87 2.45, 0.51 0.72" stroke="#000000" stroke-width="1" fill="none"></path></g></g><mask></mask><g stroke-linecap="round"><g stroke-opacity="0.4" fill-opacity="0.4" transform="translate(187.34743240245734 475.59928145372294) rotate(0 50.09686334022808 -18.45291586540955)" fill-rule="evenodd"><path d="M0 0 L9.89 -23.72 L12.2 -26.76 L16.61 -28.7 L24.01 -28.98 L53.68 -26.11 L72.53 -26.92 L88.24 -28.77 L98.24 -31.71 L100.67 -33.3 L100.21 -34.53 L88.02 -35.75 L39.94 -36.75 L24.69 -36.08 L11.8 -33.83 L4.15 -28.26 L0.06 -21.68 L0 0" stroke="none" stroke-width="0" fill="#343a40" fill-rule="evenodd"></path><path d="M0 0 C1.16 -2.73, 4.17 -11.59, 6.94 -16.38 C9.7 -21.16, 8.82 -27.08, 16.61 -28.7 C24.4 -30.32, 41.74 -26.1, 53.68 -26.11 C65.62 -26.13, 80.49 -27.37, 88.24 -28.77 C96 -30.18, 103.16 -33.28, 100.21 -34.53 C97.25 -35.79, 80.56 -35.94, 70.52 -36.31 C60.47 -36.67, 49.73 -37.16, 39.94 -36.75 C30.15 -36.34, 18.45 -36.34, 11.8 -33.83 C5.15 -31.32, 1.95 -25.54, 0.06 -21.68 C-1.83 -17.83, 0.45 -14.32, 0.44 -10.71 C0.43 -7.1, 0.07 -1.78, 0 0 M0 0 C1.16 -2.73, 4.17 -11.59, 6.94 -16.38 C9.7 -21.16, 8.82 -27.08, 16.61 -28.7 C24.4 -30.32, 41.74 -26.1, 53.68 -26.11 C65.62 -26.13, 80.49 -27.37, 88.24 -28.77 C96 -30.18, 103.16 -33.28, 100.21 -34.53 C97.25 -35.79, 80.56 -35.94, 70.52 -36.31 C60.47 -36.67, 49.73 -37.16, 39.94 -36.75 C30.15 -36.34, 18.45 -36.34, 11.8 -33.83 C5.15 -31.32, 1.95 -25.54, 0.06 -21.68 C-1.83 -17.83, 0.45 -14.32, 0.44 -10.71 C0.43 -7.1, 0.07 -1.78, 0 0" stroke="transparent" stroke-width="1" fill="none"></path></g></g><mask></mask><g stroke-linecap="round"><g transform="translate(423.23555311134487 225.26698549136802) rotate(0 1.3638869010658254 7.361725342003487)" fill-rule="evenodd"><path d="M-1.87 -1.34 L-3.07 5.68 L-2.95 11.82 L-0.72 13.23 L4.72 17.8 L3.99 11.52 L1.16 -1.64" stroke="none" stroke-width="0" fill="#228be6" fill-rule="evenodd"></path><path d="M0.93 1.05 C0.68 2.3, -2.23 5.08, -2.67 7.52 C-3.12 9.97, -3.19 14.48, -1.75 15.7 C-0.31 16.93, 5.48 16.92, 5.97 14.9 C6.45 12.87, 2.1 6.13, 1.16 3.56 C0.22 0.99, 0.37 -0.09, 0.31 -0.51 M-0.04 0.55 C-0.27 1.46, -2.71 3.62, -3.13 5.83 C-3.55 8.04, -4.13 12.13, -2.56 13.8 C-0.99 15.47, 5.84 17.46, 6.29 15.86 C6.74 14.26, 1.51 7.15, 0.16 4.2 C-1.18 1.25, -1.45 -1.16, -1.78 -1.82" stroke="#364fc7" stroke-width="1" fill="none"></path></g></g><mask></mask><g stroke-linecap="round"><g transform="translate(500.97560438249593 384.5988199205296) rotate(5.977534402547849 -23.252606800989952 -60.47251018276107)" fill-rule="evenodd"><path d="M-0.36 1.18 L4.91 -125.68 L-48.7 -31.25 L-2.06 5.5" stroke="none" stroke-width="0" fill="#e64980" fill-rule="evenodd"></path><path d="M1.39 0.25 C0.56 -46.12, 3.66 -94.75, 4.08 -124.91 M0.27 -0.51 C3.27 -48.44, 5.46 -98.36, 4.92 -125.38 M3.28 -127.53 C-6.94 -101.44, -20.71 -80.28, -51.51 -31.82 M3.99 -126.65 C-15.22 -91.23, -35.64 -55.65, -49.76 -30.54 M-51.31 -28.68 C-37 -18.65, -19.04 -8.09, -2.58 6.59 M-51.21 -29.59 C-38.1 -19.88, -24.66 -10.05, -3.07 6.38 M-3.64 5.65 C-1.82 3.59, -1.36 2.34, -0.3 0.16 M-3.09 5.96 C-1.87 4.43, -1.56 2.96, -0.24 0.31" stroke="#343a40" stroke-width="1" fill="none"></path></g></g><mask></mask><g stroke-linecap="round"><g transform="translate(352.47371085662735 270.1571507917297) rotate(5.977534402547849 71.3233302558167 54.76333599831964)" fill-rule="evenodd"><path d="M-1.25 -0.08 L6 -0.62 L17.68 2.54 L50.6 21.13 L95.03 50.77 L122.25 85.17 L136.68 97.38 L140.75 110.12 L123.91 96.59 L84.08 70.82 L27.25 24.41 L-1.23 -0.41" stroke="none" stroke-width="0" fill="#ced4da" fill-rule="evenodd"></path><path d="M-0.12 0.42 C1.84 -0.17, 3 -0.25, 6.02 -1.56 M0.05 0.09 C1.42 -0.44, 2.57 -0.22, 5.36 -1.22 M6.62 -0.16 C9.98 0.42, 12.34 1.08, 16.69 4.16 M5.22 -1.28 C8.16 -0.01, 11.79 1.17, 16.03 3.31 M14.03 2.77 C24.88 5.77, 32.62 12.17, 51.82 21.94 M15.27 3.65 C27.25 9.49, 39.11 15.68, 52 22.66 M53.6 20.16 C68.36 32.75, 83.32 45.88, 93.03 50.24 M53.3 22.28 C60.39 28.07, 68.56 35.04, 93.85 52.82 M92.95 53.16 C102.48 60.3, 112.12 72.57, 120.87 85.08 M93.22 53.09 C101.88 62.86, 110.55 73.07, 122.46 85.54 M124.07 87.69 C127.32 88.87, 131.25 92.21, 138.36 98.63 M122.92 85.2 C128.09 89.61, 132.37 94.54, 137.56 99.65 M137.72 99.17 C139.9 102.5, 140.76 106.16, 142.03 109.6 M137.68 98.94 C139.8 102.3, 140.21 106.45, 142.77 109.96 M140.56 109.34 C139.48 106.8, 133.07 106.45, 122.58 100.32 M142.27 111.21 C137.45 107.41, 130.6 103.78, 122.77 98.05 M123.41 98.41 C110.75 86.96, 98.23 79.48, 86.84 70.79 M123.33 97.8 C113.81 92.08, 103.79 85.92, 85.32 69.35 M85.96 69.52 C71.98 58.56, 54.5 45.87, 27.31 25.22 M85.03 69.69 C72.29 60.15, 58.53 48.04, 27.78 24.61 M30.59 24.59 C18.69 15.46, 12.3 10.3, 0.42 -1.68 M28.92 26.13 C19.87 18.05, 10.28 9.04, -0.03 0.38 M0 0 C0 0, 0 0, 0 0 M0 0 C0 0, 0 0, 0 0" stroke="#343a40" stroke-width="1" fill="none"></path></g></g><mask></mask><g stroke-linecap="round"><g transform="translate(314.3407828186141 270.67081030351864) rotate(16.8216018414898 45.70809406019066 137.65591915184746)" fill-rule="evenodd"><path d="M0.08 1.28 L-59.96 192.5 L88.22 277.42 L154.18 77.21 L-0.64 -0.2" stroke="none" stroke-width="0" fill="#e64980" fill-rule="evenodd"></path><path d="M0.72 0.46 C-20.47 61.32, -37.48 118.21, -63.07 191.7 M0.43 -0.74 C-15.08 48.51, -31.02 94.78, -61.35 190.49 M-60.49 191.06 C-27.02 208.13, 10.48 231.37, 87.8 273.71 M-62.39 190.87 C-23.26 213.1, 14.63 235.41, 87.36 275.17 M88.88 274.43 C114.72 201.97, 138.49 126.72, 154.11 75.54 M87.91 276.05 C112.66 204.72, 135.93 133.61, 154.49 75.98 M153.97 75.89 C108.32 53.93, 64.22 29.46, -1.91 -0.57 M153.35 77.05 C95.77 50.05, 39.84 21.42, -0.01 0.26 M0 0 C0 0, 0 0, 0 0 M0 0 C0 0, 0 0, 0 0" stroke="#343a40" stroke-width="1" fill="none"></path></g></g><mask></mask><g stroke-linecap="round"><g transform="translate(386.92463594896935 566.4605598639522) rotate(16.8216018414898 39.85617603334413 -97.98362723726956)" fill-rule="evenodd"><path d="M1.91 1.28 L16.94 0.43 L80.21 -195.46 L65.38 -197.01 L-1.01 -1.34" stroke="none" stroke-width="0" fill="#e64980" fill-rule="evenodd"></path><path d="M-0.72 1.1 C7.77 -2.15, 11.49 -0.64, 15.97 -1.08 M-0.01 0.7 C5.05 -0.87, 11.64 -1.48, 16.27 -0.58 M15.9 -2.87 C40.68 -73.21, 62.96 -150.07, 78.98 -196.81 M17.46 -1.72 C34.05 -50.72, 49.32 -101.23, 80.43 -196.64 M80.05 -195.22 C75.52 -196.21, 72.29 -197.49, 66.82 -197.7 M79.71 -195.36 C74.67 -195.63, 70.63 -197.13, 65.93 -196.37 M65.21 -196.38 C51.58 -157.83, 37.01 -115.55, 1.2 1.73 M65.37 -195.95 C43.45 -131.34, 21.86 -66.8, 0.78 -0.48 M0 0 C0 0, 0 0, 0 0 M0 0 C0 0, 0 0, 0 0" stroke="#343a40" stroke-width="1" fill="none"></path></g></g><mask></mask><g stroke-linecap="round"><g transform="translate(489.71737642077096 374.9646271295059) rotate(5.977534402547849 -11.700154696101436 -51.58633579173134)" fill-rule="evenodd"><path d="M0 0 L7.19 -103.17 L-30.59 -34.27 L0 0" stroke="none" stroke-width="0" fill="#fff" fill-rule="evenodd"></path><path d="M0 0 C2.34 -33.58, 4.68 -67.16, 7.19 -103.17 M0 0 C1.57 -22.47, 3.13 -44.95, 7.19 -103.17 M7.19 -103.17 C-3.83 -83.07, -14.86 -62.97, -30.59 -34.27 M7.19 -103.17 C-2.81 -84.93, -12.81 -66.69, -30.59 -34.27 M-30.59 -34.27 C-23.42 -26.23, -16.24 -18.2, 0 0 M-30.59 -34.27 C-19.82 -22.2, -9.04 -10.13, 0 0 M0 0 C0 0, 0 0, 0 0 M0 0 C0 0, 0 0, 0 0" stroke="#343a40" stroke-width="1" fill="none"></path></g></g><mask></mask><g stroke-linecap="round"><g transform="translate(478.5304526418422 314.6679067923215) rotate(5.977534402547849 -1.1959157681853867 23.051791667510294)"><path d="M-2.69 1.06 C-1.31 18.19, 1.89 36.77, -3.55 47.75 M1.16 -1.64 C-2.01 20.24, 0.77 37.96, -0.43 46.74" stroke="#343a40" stroke-width="1" fill="none"></path></g></g><mask></mask><g stroke-linecap="round"><g transform="translate(465.7067220566428 339.0279936483768) rotate(5.977534402547849 1.0123863628152776 8.530706431344342)"><path d="M-1.58 0.58 C0.98 4.64, -2.31 6.33, 3.6 13.5 M-1.02 1.5 C1.63 4.71, 0.54 6.48, -0.23 16.48" stroke="#343a40" stroke-width="1" fill="none"></path></g></g><mask></mask><g stroke-linecap="round"><g transform="translate(502.2136349411039 276.9167632342301) rotate(5.977534402547849 -3.4245217274706192 49.07926162730849)"><path d="M1.26 1.89 C-6.16 30.84, -1.47 59.26, -8.41 96.78 M1.56 1.38 C-2.69 19.65, -5.45 42.67, -3.98 94.16" stroke="#343a40" stroke-width="1" fill="none"></path></g></g><mask></mask><g stroke-linecap="round"><g transform="translate(430.84919549538745 328.72784846181514) rotate(5.977534402547849 17.17945017504053 14.408617435939576)"><path d="M-3.29 -0.03 C16.11 6.96, 22.84 21.54, 36.24 28.09 M-0.16 -1.04 C14.54 13.07, 33.77 23.58, 37.65 29.86" stroke="#343a40" stroke-width="1" fill="none"></path></g></g><mask></mask><g stroke-linecap="round"><g transform="translate(375.4790109573232 279.4434360649035) rotate(5.977534402547849 26.774070096207424 18.993511795247706)"><path d="M3.32 -2.47 C14.64 15.29, 31.74 23.29, 55.2 40.46 M-1.65 1.39 C20.73 13.99, 35.9 27.19, 50.17 36.45" stroke="#343a40" stroke-width="1" fill="none"></path></g></g><mask></mask><g stroke-linecap="round"><g transform="translate(451.73191897312745 292.3002443451208) rotate(243.53612430464975 50.52362685210983 33.762782158051024)" fill-rule="evenodd"><path d="M-1.7 0.95 L1.26 -3.13 L9.68 -3.37 L42.44 16.96 L70.41 31.81 L90.78 51.04 L98.17 63.76 L99.63 71.57 L89.07 66.77 L62.09 44.1 L24.1 17.51 L-1.74 2.07" stroke="none" stroke-width="0" fill="#ced4da" fill-rule="evenodd"></path><path d="M-0.23 0.21 C0.5 -0.9, 1.96 -1.08, 2.97 -2.32 M0.17 -0.03 C0.53 -0.67, 1.27 -1.23, 2.63 -2.36 M3.01 -2.91 C5.41 -1.94, 8.01 -2.95, 11.26 -3.5 M2.71 -2.2 C5.04 -2.25, 7.7 -2.48, 10.81 -2.75 M12.25 -1.24 C18.39 2.25, 31.01 6.08, 43.16 14.48 M9.91 -3.92 C18.81 2.56, 28.22 6.86, 42.55 15.64 M44.1 15.44 C49.81 21.35, 54.39 24.59, 69.92 31.68 M42.58 15.44 C52.37 21.29, 60.64 28.75, 69.37 33.86 M69.68 31.83 C72.97 38.05, 80.82 44.38, 91.57 53.13 M69.84 33.29 C77.58 40.38, 86.1 48.16, 91.25 52.85 M90.82 53.66 C93.83 57.02, 96.96 61.06, 99.73 62.9 M89.86 53.03 C92.07 55.47, 94.73 58.4, 99.95 63.23 M98.85 63.08 C99.93 65.95, 99.71 66.59, 102.21 70.49 M99.67 63.62 C99.82 65.98, 100.62 68.18, 101.96 71.06 M100.86 71.44 C97.95 68.07, 94.19 67.15, 89.65 64.13 M101.92 70.45 C97.78 69.35, 93.44 66.44, 89.29 65.31 M87.97 64.76 C82.09 62.49, 77.58 56.08, 64.81 46.12 M89 64.52 C81.23 58.4, 71.75 52.38, 63.02 46.43 M61.64 45.78 C52.29 36.22, 43.61 29.67, 22.14 16.36 M62.09 45.57 C46.99 34.93, 32.67 25.51, 22.99 18.62 M23.91 16.54 C19.66 12.74, 11.92 11.47, -0.88 3.12 M24.06 18.97 C17.96 13.88, 10.64 9.86, -0.34 1.88 M-1.05 2.11 C-0.79 1.63, -0.38 1.09, -0.07 -0.22 M-1.16 2.23 C-0.93 1.57, -0.67 1.1, 0.09 -0.13" stroke="#343a40" stroke-width="1" fill="none"></path></g></g><mask></mask><g stroke-linecap="round"><g transform="translate(504.3261110013964 272.99105827672156) rotate(5.977534402547849 -2.1709642153325603 20.1828845656292)"><path d="M-3.29 -2.65 C2.7 13.58, 0.91 20.55, -4.77 40.44 M-1.88 -0.88 C-1.31 15.29, -2.21 31.63, -1.29 43.01" stroke="#343a40" stroke-width="1" fill="none"></path></g></g><mask></mask><g stroke-linecap="round"><g transform="translate(495.34333290019003 331.0093709273561) rotate(5.977534402547849 0.8111438320704565 23.303537062443937)"><path d="M3.9 3.13 C1.07 15.29, -4.73 27.97, 0.1 47.48 M-1.13 -0.87 C-2.63 11.72, -0.95 24.14, -2.28 44.44" stroke="#343a40" stroke-width="1" fill="none"></path></g></g><mask></mask><g stroke-linecap="round"><g transform="translate(396.8787114984002 204.38479154897675) rotate(0.9047918442673833 -0.37624053034687677 -27.957319016944496)"><path d="M0.94 0.83 C2.59 -0.53, 6.1 -4.33, 9.1 -6.97 C12.09 -9.61, 15.63 -11.68, 18.9 -15.02 C22.16 -18.35, 27.09 -23.19, 28.7 -26.96 C30.32 -30.73, 29.02 -34.03, 28.59 -37.63 C28.17 -41.23, 27.62 -45.79, 26.16 -48.55 C24.69 -51.31, 22.13 -52.94, 19.8 -54.2 C17.47 -55.46, 14.46 -56.2, 12.17 -56.1 C9.89 -55.99, 7.88 -54.29, 6.07 -53.6 C4.27 -52.9, 2.22 -52.48, 1.34 -51.94 C0.46 -51.39, 1.6 -50.3, 0.79 -50.33 C-0.02 -50.35, -1.95 -51.36, -3.52 -52.09 C-5.09 -52.82, -7.12 -54.06, -8.64 -54.71 C-10.16 -55.35, -10.71 -56.08, -12.64 -55.97 C-14.57 -55.85, -17.74 -55.33, -20.23 -53.99 C-22.73 -52.65, -25.98 -50.31, -27.62 -47.92 C-29.26 -45.52, -29.76 -42.63, -30.07 -39.63 C-30.37 -36.63, -30.61 -33.43, -29.46 -29.9 C-28.31 -26.38, -25.82 -22.08, -23.19 -18.49 C-20.55 -14.9, -17.69 -11.24, -13.65 -8.36 C-9.62 -5.47, -1.22 -2.72, 1.03 -1.2 M-0.03 0.21 C1.52 -0.49, 4.55 -2.9, 8.1 -5.76 C11.65 -8.61, 18.31 -13.55, 21.27 -16.92 C24.23 -20.29, 24.39 -22.52, 25.88 -25.95 C27.37 -29.38, 29.97 -34.14, 30.19 -37.52 C30.41 -40.9, 28.89 -43.77, 27.21 -46.2 C25.53 -48.64, 22.72 -50.37, 20.11 -52.11 C17.51 -53.85, 14.19 -56.23, 11.59 -56.67 C8.99 -57.11, 6.19 -55.43, 4.53 -54.76 C2.87 -54.09, 2.13 -53.46, 1.64 -52.65 C1.15 -51.85, 2.69 -50, 1.58 -49.93 C0.47 -49.86, -3.31 -51.33, -5.04 -52.24 C-6.78 -53.15, -7.49 -54.72, -8.83 -55.4 C-10.17 -56.08, -11.23 -56.48, -13.08 -56.32 C-14.93 -56.15, -17.59 -55.47, -19.92 -54.41 C-22.25 -53.35, -25.7 -52.61, -27.06 -49.96 C-28.42 -47.31, -27.43 -42, -28.07 -38.54 C-28.71 -35.08, -31.46 -32.66, -30.89 -29.21 C-30.31 -25.75, -27.54 -21.08, -24.62 -17.83 C-21.7 -14.58, -17.56 -12.79, -13.38 -9.71 C-9.19 -6.63, -1.75 -0.94, 0.49 0.65" stroke="#000000" stroke-width="1" fill="none"></path></g></g><mask></mask><g stroke-linecap="round"><g transform="translate(400.3063613814006 207.1598956112631) rotate(0.9047918442673833 -0.3653026262863932 -27.361639927504445)" fill-rule="evenodd"><path d="M-0.98 -0.91 L20.37 -16.85 L25.6 -28.68 L29.15 -35.76 L30.76 -42.26 L26.08 -47.66 L18.96 -51.84 L10.97 -54.48 L5.81 -53.49 L1.66 -50.28 L-6.92 -55.2 L-14.87 -54.87 L-19.69 -56.17 L-27.43 -48.64 L-28.97 -41.3 L-30.8 -28.8 L-24.67 -18.32 L-14.66 -7.84 L-0.66 -0.48" stroke="none" stroke-width="0" fill="#fa5252" fill-rule="evenodd"></path><path d="M-0.1 -0.63 C1.11 -1.68, 4.69 -2.94, 8.2 -5.5 C11.72 -8.07, 17.96 -12.4, 21.01 -16.04 C24.05 -19.67, 25.12 -23.7, 26.46 -27.3 C27.8 -30.9, 29.08 -34.1, 29.04 -37.63 C29 -41.15, 27.51 -45.68, 26.21 -48.45 C24.91 -51.21, 23.7 -53.08, 21.26 -54.22 C18.82 -55.35, 14.3 -55.19, 11.58 -55.24 C8.86 -55.29, 6.33 -54.97, 4.92 -54.52 C3.52 -54.07, 4.01 -53.53, 3.14 -52.56 C2.27 -51.58, 0.89 -48.71, -0.31 -48.68 C-1.52 -48.65, -2.93 -51.26, -4.1 -52.36 C-5.27 -53.45, -5.84 -54.75, -7.35 -55.26 C-8.86 -55.77, -10.89 -55.68, -13.18 -55.4 C-15.47 -55.11, -18.71 -54.79, -21.1 -53.55 C-23.49 -52.31, -26.09 -50.28, -27.5 -47.96 C-28.91 -45.65, -29.27 -42.68, -29.57 -39.65 C-29.86 -36.61, -30.29 -33.29, -29.28 -29.76 C-28.27 -26.23, -26.33 -21.69, -23.49 -18.45 C-20.65 -15.22, -16.11 -13.56, -12.22 -10.36 C-8.34 -7.15, -2.02 -0.99, -0.16 0.76 M-1.61 1.66 C-0.12 0.2, 6.66 -4.44, 10.4 -7.19 C14.14 -9.94, 18.21 -11.6, 20.83 -14.82 C23.45 -18.03, 24.44 -22.69, 26.11 -26.47 C27.79 -30.26, 30.68 -33.64, 30.88 -37.51 C31.07 -41.39, 29.33 -47.27, 27.3 -49.71 C25.26 -52.15, 21.45 -51.19, 18.69 -52.13 C15.92 -53.08, 12.73 -55.3, 10.68 -55.36 C8.64 -55.42, 8.1 -53.41, 6.44 -52.51 C4.78 -51.6, 1.81 -50.79, 0.72 -49.94 C-0.37 -49.09, 0.39 -46.97, -0.1 -47.42 C-0.6 -47.88, -1.14 -51.18, -2.27 -52.65 C-3.39 -54.12, -4.92 -55.78, -6.86 -56.25 C-8.79 -56.71, -11.5 -55.87, -13.9 -55.45 C-16.29 -55.04, -19.08 -54.65, -21.24 -53.75 C-23.41 -52.84, -25.26 -52.56, -26.88 -50.03 C-28.49 -47.5, -30.34 -42.08, -30.96 -38.57 C-31.59 -35.06, -32.2 -32.45, -30.61 -28.99 C-29.02 -25.52, -24.05 -21.09, -21.43 -17.78 C-18.8 -14.46, -18.2 -12.06, -14.86 -9.1 C-11.51 -6.15, -3.58 -1.35, -1.34 -0.03" stroke="#000000" stroke-width="1" fill="none"></path></g></g><mask></mask><g stroke-linecap="round"><g transform="translate(406.7998925869874 199.58690796642452) rotate(0.9047918442673833 0.0524869395371752 -14.4980634433023)" fill-rule="evenodd"><path d="M0.48 -1 L10.14 -10.08 L16.25 -12.46 L20.07 -18.54 L15.61 -24.39 L10.99 -25.79 L6.54 -27.52 L-0.08 -24.84 L-3.02 -29.41 L-15.58 -30.02 L-19.51 -14.96 L-13.56 -11.85 L-0.7 -0.03" stroke="none" stroke-width="0" fill="#ffc2c2" fill-rule="evenodd"></path><path d="M-0.99 0.84 C0.15 0.36, 4.73 -1.86, 6.73 -3.45 C8.72 -5.04, 9.43 -6.89, 11 -8.7 C12.57 -10.51, 15.06 -12.52, 16.14 -14.33 C17.22 -16.14, 17.32 -17.74, 17.5 -19.55 C17.67 -21.37, 18 -23.91, 17.2 -25.2 C16.4 -26.49, 14.56 -26.64, 12.7 -27.31 C10.83 -27.98, 7.38 -28.92, 6.01 -29.2 C4.63 -29.48, 5.26 -29.51, 4.45 -28.98 C3.64 -28.44, 2.04 -26.64, 1.16 -26 C0.28 -25.36, -0.41 -24.88, -0.85 -25.12 C-1.3 -25.36, -0.85 -26.94, -1.51 -27.43 C-2.17 -27.92, -3.58 -27.98, -4.82 -28.07 C-6.05 -28.17, -6.84 -27.83, -8.91 -28 C-10.99 -28.18, -16.01 -29.72, -17.29 -29.13 C-18.56 -28.54, -16.46 -25.96, -16.57 -24.44 C-16.68 -22.91, -17.68 -21.58, -17.95 -20 C-18.22 -18.41, -19.01 -16.42, -18.19 -14.94 C-17.37 -13.46, -14.7 -12.95, -13.05 -11.13 C-11.39 -9.3, -10.24 -5.84, -8.25 -3.96 C-6.26 -2.08, -2.38 -0.43, -1.1 0.14 M0.69 0.23 C1.78 0, 4.27 -0.7, 6.37 -2.01 C8.47 -3.33, 11.69 -5.75, 13.3 -7.66 C14.91 -9.58, 15.02 -11.55, 16.03 -13.5 C17.04 -15.45, 19.46 -17.22, 19.36 -19.39 C19.25 -21.55, 16.38 -24.96, 15.4 -26.47 C14.41 -27.98, 14.67 -27.88, 13.47 -28.44 C12.27 -28.99, 9.87 -30, 8.17 -29.81 C6.46 -29.62, 4.31 -27.9, 3.25 -27.29 C2.19 -26.69, 2.52 -26.73, 1.82 -26.18 C1.12 -25.63, -0.2 -23.7, -0.94 -24 C-1.69 -24.31, -2.05 -27.22, -2.66 -28.02 C-3.27 -28.81, -3.98 -28.79, -4.6 -28.76 C-5.23 -28.73, -4.3 -27.73, -6.43 -27.83 C-8.55 -27.93, -15.82 -29.57, -17.36 -29.35 C-18.91 -29.13, -15.36 -27.66, -15.68 -26.52 C-15.99 -25.38, -19.2 -24.56, -19.26 -22.5 C-19.31 -20.44, -16.92 -15.98, -16.03 -14.15 C-15.13 -12.31, -15.25 -12.97, -13.89 -11.5 C-12.53 -10.03, -10.31 -7.1, -7.85 -5.34 C-5.38 -3.59, -0.31 -2.11, 0.9 -0.97" stroke="transparent" stroke-width="1" fill="none"></path></g></g><mask></mask><g stroke-linecap="round"><g transform="translate(281.39731127518326 246.48820290073047) rotate(331.68280727051564 0.4511323785013701 -36.687196601017945)"><path d="M1.12 -0.18 C3.13 -1.82, 6.98 -5.38, 11.08 -8.95 C15.18 -12.51, 21.57 -17.06, 25.72 -21.57 C29.87 -26.07, 33.56 -31.27, 35.99 -35.96 C38.42 -40.65, 40.31 -45.13, 40.29 -49.69 C40.27 -54.25, 38.22 -59.63, 35.87 -63.33 C33.52 -67.03, 29.53 -69.95, 26.2 -71.89 C22.88 -73.84, 19.05 -75.13, 15.94 -75.01 C12.83 -74.89, 9.82 -72.34, 7.53 -71.18 C5.24 -70.02, 3.39 -68.95, 2.19 -68.02 C1 -67.09, 1.47 -65.36, 0.37 -65.62 C-0.74 -65.87, -2.48 -68.46, -4.43 -69.57 C-6.38 -70.67, -9.03 -71.64, -11.33 -72.25 C-13.63 -72.86, -15.6 -73.38, -18.23 -73.23 C-20.86 -73.09, -24.2 -72.96, -27.09 -71.38 C-29.99 -69.8, -33.54 -66.88, -35.57 -63.76 C-37.6 -60.64, -38.93 -56.33, -39.28 -52.66 C-39.64 -48.99, -39.12 -46.36, -37.71 -41.72 C-36.3 -37.08, -33.99 -29.75, -30.82 -24.8 C-27.65 -19.85, -23.74 -16.06, -18.7 -12.02 C-13.66 -7.97, -3.75 -2.45, -0.59 -0.55 M0.25 -1.33 C2.7 -2.87, 9.14 -4.49, 13.2 -7.69 C17.26 -10.89, 20.81 -15.96, 24.6 -20.52 C28.38 -25.09, 33.47 -30.24, 35.91 -35.08 C38.36 -39.91, 39.01 -44.69, 39.26 -49.53 C39.51 -54.38, 39.56 -60.77, 37.41 -64.15 C35.26 -67.54, 30.04 -68.49, 26.37 -69.84 C22.7 -71.2, 18.21 -71.87, 15.38 -72.28 C12.56 -72.69, 11.55 -72.95, 9.41 -72.29 C7.27 -71.64, 3.96 -69.59, 2.55 -68.34 C1.14 -67.09, 2.35 -64.54, 0.95 -64.79 C-0.45 -65.04, -3.77 -68.54, -5.85 -69.86 C-7.94 -71.18, -9.93 -72.17, -11.57 -72.71 C-13.21 -73.25, -13.12 -73.27, -15.68 -73.08 C-18.24 -72.9, -23.76 -72.83, -26.91 -71.61 C-30.06 -70.39, -32.89 -68.51, -34.59 -65.76 C-36.28 -63.02, -36.44 -59.11, -37.09 -55.15 C-37.73 -51.18, -39.25 -47.15, -38.45 -41.98 C-37.65 -36.82, -35.57 -28.86, -32.29 -24.15 C-29.01 -19.44, -24.45 -18.02, -18.79 -13.72 C-13.12 -9.42, -1.57 -0.88, 1.68 1.64" stroke="#000000" stroke-width="1" fill="none"></path></g></g><mask></mask><g stroke-linecap="round"><g transform="translate(287.3400316090242 247.89548112768546) rotate(331.68280727051564 -0.43303529105969574 -35.88624012160264)" fill-rule="evenodd"><path d="M-0.57 1.35 L14.15 -7.83 L25.64 -20.67 L30.76 -26.28 L38.55 -41.22 L38.23 -56.36 L37.39 -64.82 L32.81 -68.56 L19.28 -72.46 L11.45 -75.08 L-0.84 -65.34 L-4.07 -70.86 L-12.05 -71.22 L-19.03 -72.94 L-28.23 -70.69 L-36.14 -65.01 L-39.29 -61.28 L-39.46 -45.95 L-36.84 -39.24 L-30.55 -23.73 L-17.15 -11.81 L-0.64 -0.2" stroke="none" stroke-width="0" fill="#fa5252" fill-rule="evenodd"></path><path d="M-1.13 -0.53 C0.61 -1.99, 7.04 -5.45, 11.53 -8.94 C16.01 -12.43, 21.45 -16.96, 25.77 -21.46 C30.09 -25.97, 35.13 -31.41, 37.46 -35.98 C39.78 -40.54, 40.16 -44.12, 39.7 -48.84 C39.24 -53.55, 36.67 -60.31, 34.72 -64.25 C32.77 -68.2, 31.32 -70.99, 28 -72.51 C24.69 -74.03, 18.34 -73.54, 14.84 -73.36 C11.33 -73.18, 8.84 -72.25, 6.95 -71.45 C5.06 -70.65, 4.67 -69.64, 3.49 -68.58 C2.3 -67.51, 1.29 -64.96, -0.17 -65.05 C-1.63 -65.14, -3.46 -67.92, -5.3 -69.13 C-7.13 -70.34, -9.13 -71.61, -11.21 -72.3 C-13.28 -72.98, -15.11 -73.43, -17.73 -73.25 C-20.35 -73.08, -23.89 -72.83, -26.92 -71.24 C-29.94 -69.65, -34.05 -66.49, -35.88 -63.72 C-37.7 -60.96, -37.35 -58.65, -37.85 -54.66 C-38.36 -50.66, -39.92 -44.64, -38.91 -39.76 C-37.89 -34.89, -35.21 -29.93, -31.75 -25.42 C-28.3 -20.91, -23.52 -16.84, -18.18 -12.7 C-12.84 -8.57, -2.54 -2.53, 0.29 -0.6 M0.48 1.81 C2.51 0.52, 9.85 -3.98, 13.88 -7.68 C17.91 -11.38, 20.64 -15.8, 24.68 -20.37 C28.72 -24.94, 35.86 -30.46, 38.14 -35.1 C40.42 -39.75, 38.77 -43.15, 38.36 -48.23 C37.95 -53.3, 37.81 -61.8, 35.66 -65.56 C33.51 -69.32, 29.12 -69.48, 25.46 -70.79 C21.8 -72.1, 16.52 -73.11, 13.7 -73.43 C10.88 -73.75, 10.05 -73.41, 8.52 -72.7 C6.99 -72, 5.92 -70.65, 4.52 -69.19 C3.12 -67.73, 1.48 -63.93, 0.14 -63.93 C-1.2 -63.93, -1.6 -67.72, -3.52 -69.19 C-5.44 -70.67, -8.87 -72.13, -11.38 -72.78 C-13.89 -73.44, -16.03 -73.35, -18.58 -73.12 C-21.12 -72.88, -23.89 -72.63, -26.64 -71.39 C-29.38 -70.16, -33.06 -68.52, -35.05 -65.71 C-37.04 -62.9, -37.69 -58.99, -38.56 -54.54 C-39.44 -50.09, -41.7 -43.91, -40.28 -39 C-38.86 -34.09, -33.77 -29.74, -30.06 -25.09 C-26.34 -20.44, -22.91 -15.55, -18 -11.11 C-13.1 -6.67, -3.39 -0.39, -0.64 1.56" stroke="#000000" stroke-width="1" fill="none"></path></g></g><mask></mask><g stroke-linecap="round"><g transform="translate(296.1749675172209 232.80030635888704) rotate(331.68280727051564 -0.13495476522371064 -18.567575777471596)" fill-rule="evenodd"><path d="M1.95 0.59 L15.34 -10.48 L20.86 -16.38 L23.69 -24.22 L21.7 -32.34 L18.29 -37.88 L10.11 -38.33 L-1.8 -32.89 L-5.84 -39.53 L-22.62 -39.56 L-23.3 -21.92 L-20.3 -11.45 L-12.31 -5.33 L-1.41 1.32" stroke="none" stroke-width="0" fill="#ffc2c2" fill-rule="evenodd"></path><path d="M-0.68 -0.52 C0.65 -1.23, 3.88 -2.97, 6.82 -4.76 C9.75 -6.56, 14.31 -9.1, 16.93 -11.29 C19.56 -13.48, 21.53 -15.47, 22.57 -17.91 C23.61 -20.34, 23.14 -23.22, 23.15 -25.9 C23.16 -28.58, 23.75 -32.26, 22.61 -34 C21.48 -35.73, 18.69 -35.65, 16.32 -36.29 C13.95 -36.93, 10.24 -37.68, 8.39 -37.84 C6.54 -38.01, 6.32 -37.76, 5.22 -37.27 C4.12 -36.79, 2.82 -35.66, 1.79 -34.94 C0.76 -34.22, -0.11 -32.91, -0.98 -32.98 C-1.86 -33.05, -2.52 -34.69, -3.46 -35.35 C-4.4 -36.02, -5.42 -36.65, -6.63 -36.98 C-7.85 -37.31, -8.12 -37.03, -10.74 -37.32 C-13.35 -37.61, -20.67 -39.2, -22.31 -38.72 C-23.96 -38.25, -20.34 -36.45, -20.6 -34.47 C-20.86 -32.48, -23.18 -29.09, -23.87 -26.8 C-24.56 -24.52, -25.49 -22.93, -24.72 -20.75 C-23.95 -18.57, -21.65 -16.04, -19.27 -13.73 C-16.89 -11.41, -13.45 -8.97, -10.44 -6.87 C-7.42 -4.77, -2.87 -2.43, -1.19 -1.15 M1.17 1.81 C2.99 1.32, 6.63 -1.44, 9.2 -3.45 C11.78 -5.45, 14.32 -8.01, 16.61 -10.2 C18.9 -12.39, 21.57 -13.99, 22.95 -16.58 C24.32 -19.18, 25.22 -23.21, 24.87 -25.77 C24.51 -28.34, 22.17 -30.04, 20.84 -31.97 C19.5 -33.9, 18.56 -36.35, 16.85 -37.36 C15.15 -38.38, 12.78 -38.42, 10.61 -38.06 C8.43 -37.69, 5.16 -35.63, 3.82 -35.16 C2.47 -34.69, 3.37 -35.24, 2.54 -35.26 C1.72 -35.28, -0.44 -35.26, -1.13 -35.29 C-1.83 -35.32, -0.71 -35.07, -1.62 -35.44 C-2.52 -35.8, -4.9 -37.2, -6.55 -37.48 C-8.19 -37.76, -8.88 -36.88, -11.49 -37.11 C-14.1 -37.34, -20.33 -39.4, -22.2 -38.86 C-24.06 -38.31, -22.18 -35.43, -22.68 -33.84 C-23.18 -32.25, -25.17 -31.57, -25.21 -29.32 C-25.25 -27.06, -24.24 -22.9, -22.92 -20.31 C-21.6 -17.72, -19.5 -16.26, -17.31 -13.76 C-15.12 -11.26, -12.81 -7.72, -9.8 -5.3 C-6.79 -2.89, -0.84 -0.14, 0.76 0.73" stroke="transparent" stroke-width="1" fill="none"></path></g></g><mask></mask><g stroke-linecap="round"><g transform="translate(251.3605345996407 239.81431756044947) rotate(32.9518816578977 4.854088436589109 11.322959501596047)" fill-rule="evenodd"><path d="M-1.29 1.08 L-6.02 10.89 L-5.3 17.68 L-3.23 23.17 L4.81 21.58 L8.79 24.01 L11.61 19.61 L13.58 13.21 L0.48 -1" stroke="none" stroke-width="0" fill="#228be6" fill-rule="evenodd"></path><path d="M-0.9 -0.51 C-1.72 0.88, -4.36 4.91, -4.67 8.72 C-4.98 12.53, -4.93 19.97, -2.78 22.35 C-0.62 24.73, 5.3 24.41, 8.28 22.99 C11.25 21.57, 16.45 17.61, 15.06 13.82 C13.68 10.03, 2.63 2.45, -0.03 0.26 M0.82 -1.82 C-0.1 -0.36, -4.4 5.98, -5.15 9.66 C-5.89 13.35, -5.86 17.85, -3.65 20.28 C-1.44 22.71, 5.19 25.26, 8.11 24.22 C11.03 23.19, 14.98 18.19, 13.86 14.05 C12.73 9.9, 3.8 1.74, 1.37 -0.65" stroke="#364fc7" stroke-width="1" fill="none"></path></g></g><mask></mask><g stroke-linecap="round"><g transform="translate(244.31393950583288 272.2615953262508) rotate(0 4.065488321173007 11.815113131860382)" fill-rule="evenodd"><path d="M-0.45 1.04 L-5.72 11.13 L-5.8 17.77 L-0.85 19.84 L2.78 24.57 L7.16 22.5 L12.43 18.19 L15.04 13.13 L-1.98 -1.91" stroke="none" stroke-width="0" fill="#228be6" fill-rule="evenodd"></path><path d="M0.9 -1.13 C0.09 0.68, -5.06 6.5, -5.77 10.36 C-6.48 14.23, -5.9 20.15, -3.35 22.08 C-0.81 24.01, 6.52 23.23, 9.5 21.95 C12.48 20.67, 16.26 17.93, 14.53 14.39 C12.8 10.84, 1.65 2.98, -0.9 0.7 M-0.09 0.9 C-1 2.39, -6.7 4.74, -6.83 8.51 C-6.96 12.28, -3.68 21.13, -0.87 23.53 C1.93 25.92, 7.69 24.33, 10.01 22.89 C12.33 21.46, 14.7 18.72, 13.04 14.91 C11.38 11.1, 2.31 2.57, 0.05 0.02" stroke="#364fc7" stroke-width="1" fill="none"></path></g></g><mask></mask><g stroke-linecap="round"><g transform="translate(236.52615466536145 319.2554120658215) rotate(0 2.8347972280221256 8.37711927067344)" fill-rule="evenodd"><path d="M-0.16 1.28 L-4.05 7.95 L-1.41 9.04 L-1.84 15.93 L3.64 15.19 L7.19 11.92 L9.35 8.49 L-1.98 -1.91" stroke="none" stroke-width="0" fill="#228be6" fill-rule="evenodd"></path><path d="M-0.21 0.52 C-1.05 1.85, -4.03 4.55, -4.18 6.86 C-4.32 9.17, -2.66 12.97, -1.06 14.36 C0.55 15.75, 3.94 15.91, 5.45 15.21 C6.95 14.52, 9.01 12.61, 7.97 10.18 C6.93 7.76, 0.6 2.24, -0.77 0.65 M-1.78 -0.26 C-2.32 0.79, -1.91 2.24, -1.88 4.87 C-1.84 7.5, -2.82 13.58, -1.56 15.51 C-0.3 17.44, 3.81 17.21, 5.68 16.45 C7.55 15.69, 10.6 13.69, 9.69 10.94 C8.78 8.19, 1.81 1.84, 0.23 -0.05" stroke="#364fc7" stroke-width="1" fill="none"></path></g></g><mask></mask><g stroke-linecap="round"><g transform="translate(413.042277040689 203.1825818109579) rotate(32.9518816578977 3.5763135297370354 6.59880715536135)" fill-rule="evenodd"><path d="M-0.66 1.34 L-2.29 3.43 L-2.13 13.29 L4.71 12.76 L8.72 9.76 L10.98 6.78 L-1.98 -1.91" stroke="none" stroke-width="0" fill="#228be6" fill-rule="evenodd"></path><path d="M-0.79 0.25 C-1.34 1.01, -3.32 3.11, -3.51 5.11 C-3.69 7.12, -3.4 10.93, -1.88 12.28 C-0.36 13.63, 3.71 13.86, 5.64 13.22 C7.57 12.58, 10.71 10.53, 9.72 8.43 C8.74 6.33, 1.36 1.9, -0.27 0.63 M1 -0.67 C0.36 0.23, -3.58 4.09, -4.19 6.49 C-4.8 8.89, -4.26 12.98, -2.66 13.73 C-1.06 14.49, 3.06 11.79, 5.42 11.03 C7.78 10.27, 12.24 11.01, 11.5 9.16 C10.77 7.3, 2.83 1.47, 1 -0.08" stroke="#364fc7" stroke-width="1" fill="none"></path></g></g><mask></mask><g stroke-linecap="round"><g transform="translate(355.3708315128247 203.1228200364323) rotate(366.5548626191468 48.544219745908094 19.98197909940106)" fill-rule="evenodd"><path d="M0.24 0.23 L-12.71 13.83 L-10.65 21.28 L-11.85 27.66 L-13.94 36.8 L-10.55 38.34 L23.07 38.36 L80.93 36.23 L104.81 29.77 L112.08 29.95 L108.51 25.45 L82.45 17.98 L-0.94 -1.64" stroke="none" stroke-width="0" fill="yellow" fill-rule="evenodd"></path><path d="M-0.08 0.18 C-1.92 2.33, -9.13 7.59, -10.8 12.01 C-12.48 16.43, -11.31 22.07, -10.14 26.72 C-8.96 31.36, -24.05 39.55, -3.77 39.86 C16.51 40.18, 110.93 35.06, 111.52 28.6 C112.11 22.14, 18.55 5.73, -0.23 1.13 M-1.58 -0.77 C-3.5 1.6, -9.71 8.42, -11.22 13.17 C-12.73 17.92, -11.95 23.14, -10.65 27.73 C-9.36 32.33, -23.63 40.53, -3.43 40.73 C16.76 40.92, 109.76 35.56, 110.51 28.89 C111.26 22.21, 19.66 5.46, 1.06 0.68" stroke="#000000" stroke-width="1" fill="none"></path></g></g><mask></mask><g stroke-linecap="round"><g transform="translate(344.2036898362803 230.53427632141666) rotate(366.5548626191468 48.030239733324834 0.39404498712669156)"><path d="M1.02 -0.72 C17.03 -0.8, 80.19 -0.36, 95.97 -0.27 M0.09 1.51 C15.99 1.58, 79.45 1.07, 95.27 0.97" stroke="#000" stroke-width="1" fill="none"></path></g></g><mask></mask><g stroke-linecap="round"><g stroke-opacity="0.5" fill-opacity="0.5" transform="translate(343.3961062854364 231.6194770396872) rotate(366.5548626191468 55.67588715588704 5.683216855581422)" fill-rule="evenodd"><path d="M0.65 -0.5 L-4.93 5.1 L-3.32 7.34 L5.51 11.8 L77.01 6.02 L117.07 4.34 L114.34 1.1 L98.75 0.16 L-0.94 -1.64" stroke="none" stroke-width="0" fill="#fab005" fill-rule="evenodd"></path><path d="M0.47 -0.57 C-0.33 0.9, -6 6.19, -3.82 8.1 C-1.65 10, -1.42 10.86, 13.51 10.85 C28.45 10.85, 68.97 9.17, 85.8 8.06 C102.64 6.95, 112.62 5.48, 114.52 4.2 C116.43 2.91, 112.1 0.95, 97.23 0.33 C82.37 -0.29, 41.37 0.39, 25.34 0.47 C9.3 0.54, 5.38 0.81, 1.03 0.77 M-0.74 1.75 C-1.78 3.44, -7 7.67, -4.68 9.39 C-2.36 11.11, -1.9 12.62, 13.21 12.07 C28.31 11.52, 68.78 7.87, 85.93 6.1 C103.08 4.33, 113.99 2.58, 116.12 1.46 C118.25 0.33, 113.79 -0.31, 98.72 -0.64 C83.65 -0.97, 42.06 -0.78, 25.7 -0.53 C9.34 -0.29, 4.69 0.92, 0.55 0.84" stroke="transparent" stroke-width="1" fill="none"></path></g></g><mask></mask><g stroke-linecap="round"><g transform="translate(358.2199979529678 109.16080790390868) rotate(0 -155.16484897128385 207.58208666889533)" fill-rule="evenodd"><path d="M0 0 L-3.57 3.81 L-7.54 11.16 L-9.46 33.38 L-10.76 39.42 L-13.58 46.87 L-16.52 48.34 L-22.45 47.38 L-26.93 45.44 L-59.56 25.47 L-74.04 20.12 L-89.05 17.94 L-105.1 17.49 L-120.8 19.69 L-134.75 25.46 L-147.36 35.93 L-159.11 50.32 L-168.74 66.65 L-174.97 82.96 L-176.32 99.42 L-167.69 150.57 L-168.35 165.62 L-170.36 179.92 L-171 193.56 L-167.54 206.65 L-158.75 219.5 L-146.24 231.96 L-131.57 243.43 L-116.27 253.28 L-99.8 261.27 L-81.64 267.74 L-46.74 277.45 L-29.89 279.87 L0.77 281.8 L4.91 283.39 L6.65 286.03 L6.02 290.06 L3.49 295.39 L-6.47 308.11 L-21.73 320.64 L-30.88 325.73 L-40.78 329.44 L-52.7 331.45 L-67.36 332.03 L-133.38 329.56 L-146.75 330.11 L-156.86 332.08 L-163.58 335.53 L-167.83 340.04 L-170.12 345.35 L-171 351.19 L-171.18 374.86 L-173.78 393.87 L-177.19 438.71 L-178.9 451.9 L-182.76 464.77 L-196.04 494.15 L-205.66 506.93 L-211.5 511.33 L-218.14 513.83 L-226.05 514.25 L-235.36 512.93 L-256.41 506.41 L-277.75 496.95 L-295.84 487.21 L-310.17 477.79 L-322.49 467.31 L-332.62 455.47 L-340.4 441.95 L-345.29 425.91 L-347.55 407.77 L-348.22 371.57 L-346.15 340.48 L-340.94 310.24 L-333.38 278.93 L-323.7 246.69 L-303.79 198.67 L-299.53 177.84 L-298.92 165.23 L-299.4 151.12 L-304.32 88.35 L-304.32 73.26 L-303.04 59.29 L-297.5 33.1 L-289.35 8.18 L-278.95 -14.64 L-266.63 -34.52 L-251.91 -51.23 L-234.81 -65.2 L-216.4 -76.66 L-197.78 -85.8 L-178.84 -92.54 L-159.13 -96.81 L-139.23 -98.87 L-119.73 -98.99 L-100.29 -96.84 L-80.76 -92.43 L-62.01 -86.45 L-44.87 -79.64 L-29.42 -71.84 L-15.25 -62.77 L-2.52 -53 L8.63 -43.06 L18.59 -31.79 L27.31 -19.34 L33.92 -8.22 L37.85 0.58 L37.05 0.82 L23.54 -6.92 L16.67 -7.93 L10.26 -7.29 L0 0" stroke="none" stroke-width="0" fill="#000000" fill-rule="evenodd"></path><path d="M0 0 C-1.26 1.86, -5.75 4.59, -7.54 11.16 C-9.33 17.73, -8.27 33.38, -10.76 39.42 C-13.25 45.45, -11.91 50.6, -22.45 47.38 C-33 44.16, -55.32 23.77, -74.04 20.12 C-92.75 16.47, -117.93 14.98, -134.75 25.46 C-151.57 35.93, -169.48 62.11, -174.97 82.96 C-180.46 103.81, -168.93 129.95, -167.69 150.57 C-166.45 171.18, -176.11 189.53, -167.54 206.65 C-158.97 223.77, -136.41 241.49, -116.27 253.28 C-96.14 265.08, -67.23 271.99, -46.74 277.45 C-26.25 282.9, 5.66 277.36, 6.65 286.03 C7.65 294.69, -13.53 321.77, -40.78 329.44 C-68.03 337.12, -135.12 324.51, -156.86 332.08 C-178.59 339.65, -168.07 361.22, -171.18 374.86 C-174.28 388.49, -173.58 398.91, -175.51 413.89 C-177.44 428.88, -175.65 448.12, -182.76 464.77 C-189.86 481.43, -199.29 510.09, -218.14 513.83 C-236.98 517.57, -275.46 499.19, -295.84 487.21 C-316.22 475.23, -331.67 461.22, -340.4 441.95 C-349.13 422.68, -348.13 393.52, -348.22 371.57 C-348.31 349.62, -345.03 331.06, -340.94 310.24 C-336.86 289.43, -330.6 268.75, -323.7 246.69 C-316.8 224.62, -302.97 209.07, -299.53 177.84 C-296.09 146.6, -308.52 94.68, -303.04 59.29 C-297.55 23.89, -284.17 -10.34, -266.63 -34.52 C-249.08 -58.7, -222.27 -75.06, -197.78 -85.8 C-173.3 -96.55, -145.22 -100.02, -119.73 -98.99 C-94.24 -97.96, -66.26 -88.96, -44.87 -79.64 C-23.48 -70.32, -5.11 -56.18, 8.63 -43.06 C22.36 -29.94, 35.07 -6.96, 37.55 -0.94 C40.04 5.08, 28.09 -5.86, 23.54 -6.92 C18.99 -7.98, 14.19 -8.44, 10.26 -7.29 C6.34 -6.14, 1.71 -1.22, 0 0 M0 0 C-1.26 1.86, -5.75 4.59, -7.54 11.16 C-9.33 17.73, -8.27 33.38, -10.76 39.42 C-13.25 45.45, -11.91 50.6, -22.45 47.38 C-33 44.16, -55.32 23.77, -74.04 20.12 C-92.75 16.47, -117.93 14.98, -134.75 25.46 C-151.57 35.93, -169.48 62.11, -174.97 82.96 C-180.46 103.81, -168.93 129.95, -167.69 150.57 C-166.45 171.18, -176.11 189.53, -167.54 206.65 C-158.97 223.77, -136.41 241.49, -116.27 253.28 C-96.14 265.08, -67.23 271.99, -46.74 277.45 C-26.25 282.9, 5.66 277.36, 6.65 286.03 C7.65 294.69, -13.53 321.77, -40.78 329.44 C-68.03 337.12, -135.12 324.51, -156.86 332.08 C-178.59 339.65, -168.07 361.22, -171.18 374.86 C-174.28 388.49, -173.58 398.91, -175.51 413.89 C-177.44 428.88, -175.65 448.12, -182.76 464.77 C-189.86 481.43, -199.29 510.09, -218.14 513.83 C-236.98 517.57, -275.46 499.19, -295.84 487.21 C-316.22 475.23, -331.67 461.22, -340.4 441.95 C-349.13 422.68, -348.13 393.52, -348.22 371.57 C-348.31 349.62, -345.03 331.06, -340.94 310.24 C-336.86 289.43, -330.6 268.75, -323.7 246.69 C-316.8 224.62, -302.97 209.07, -299.53 177.84 C-296.09 146.6, -308.52 94.68, -303.04 59.29 C-297.55 23.89, -284.17 -10.34, -266.63 -34.52 C-249.08 -58.7, -222.27 -75.06, -197.78 -85.8 C-173.3 -96.55, -145.22 -100.02, -119.73 -98.99 C-94.24 -97.96, -66.26 -88.96, -44.87 -79.64 C-23.48 -70.32, -5.11 -56.18, 8.63 -43.06 C22.36 -29.94, 35.07 -6.96, 37.55 -0.94 C40.04 5.08, 28.09 -5.86, 23.54 -6.92 C18.99 -7.98, 14.19 -8.44, 10.26 -7.29 C6.34 -6.14, 1.71 -1.22, 0 0" stroke="#343a40" stroke-width="1" fill="none"></path></g></g><mask></mask><g transform="translate(316.28312087979293 320.37666156291345) rotate(40.61359306178215 69.9925537109375 46.559399773448035)"><text x="69.9925537109375" y="0" font-family="Virgil, Segoe UI Emoji" font-size="37.24751981875843px" fill="#1e1e1e" text-anchor="middle" style="white-space: pre;" direction="ltr" dominant-baseline="text-before-edge">Linux</text><text x="69.9925537109375" y="46.559399773448035" font-family="Virgil, Segoe UI Emoji" font-size="37.24751981875843px" fill="#1e1e1e" text-anchor="middle" style="white-space: pre;" direction="ltr" dominant-baseline="text-before-edge">Dersleri</text></g></svg>